<?xml version="1.0" encoding="iso-8859-1"?>
<!-- Generator: Adobe Illustrator 19.0.0, SVG Export Plug-In . SVG Version: 6.00 Build 0)  -->
<svg version="1.1" id="Capa_1" xmlns="http://www.w3.org/2000/svg" xmlns:xlink="http://www.w3.org/1999/xlink" x="0px" y="0px"
	 viewBox="0 0 511.742 511.742" style="enable-background:new 0 0 511.742 511.742;" xml:space="preserve">
<g>
	<g>
		<path d="M434.392,235.772c-0.066-0.324-0.152-0.643-0.258-0.955c-0.094-0.188-0.267-0.298-0.372-0.475
			c-1.199-1.871-3.032-3.248-5.164-3.877c-0.207-0.054-0.367-0.192-0.581-0.231c-0.901,0.02-1.801,0.04-2.702,0.06
			c-0.594,0.091-1.177,0.248-1.736,0.467c-0.303,0.062-0.602,0.142-0.895,0.24l-4.717,2.36v-1.101
			c0.028-41.957-7.518-83.574-22.275-122.851L391.826,99.1c-1.141-3.039-3.908-5.168-7.139-5.491
			c-3.23-0.324-6.365,1.214-8.086,3.966l-8.246,13.193c-7.286-21.549-18.337-41.636-32.638-59.326
			c-4.311-5.516-10.914-8.75-17.915-8.774c-7.001-0.024-13.626,3.165-17.975,8.651c-6.698-15.29-15.436-29.601-25.977-42.544
			C269.515,3.236,262.872,0,255.838,0c-7.034,0-13.677,3.236-18.012,8.775c-10.153,12.427-18.632,26.132-25.22,40.765
			c-4.532-4.859-10.963-7.492-17.601-7.208c-6.638,0.284-12.82,3.457-16.921,8.685c-14.828,18.394-26.177,39.338-33.488,61.805
			l-9.529-15.247c-1.721-2.753-4.856-4.29-8.086-3.966c-3.23,0.324-5.997,2.452-7.139,5.491l-3.867,10.308
			c-14.757,39.276-22.303,80.893-22.275,122.85v1.101L88.984,231c-0.297-0.099-0.6-0.181-0.906-0.244
			c-1.077-0.438-2.244-0.61-3.401-0.5c-0.341-0.03-0.684-0.037-1.026-0.023c-0.215,0.04-0.376,0.178-0.584,0.232
			c-2.131,0.629-3.963,2.006-5.161,3.877c-0.105,0.177-0.277,0.286-0.371,0.474c-0.106,0.313-0.193,0.632-0.258,0.955
			c-0.346,1.433-0.517,2.904-0.508,4.378c10.286,58.182,45.774,108.838,96.944,138.378c0.903,0.823,1.976,1.436,3.144,1.795
			c11.252,6.063,23.141,10.861,35.45,14.306l-7.646,98.012c-0.283,3.644,1.784,7.065,5.142,8.508l4.634,1.992
			c26.409,11.467,56.391,11.467,82.8,0l4.634-1.992c3.358-1.444,5.425-4.864,5.142-8.508l-7.646-98.01
			c12.313-3.447,24.206-8.247,35.462-14.313c1.158-0.358,2.223-0.966,3.121-1.781C389.125,349,424.618,298.339,434.9,240.15
			C435.09,238.671,434.915,237.168,434.392,235.772z M372.971,135.585l0.035-0.054l8.869-14.189
			c12.615,35.618,19.049,73.13,19.025,110.917v9.637l-2.575,1.288c-3.898,1.948-7.698,4.048-11.41,6.27
			c-2.397-11.143-5.608-22.096-9.606-32.77c-6.28-16.835-14.878-32.713-25.544-47.173L372.971,135.585z M304.709,73.192
			c2.442-3.6,5.192-7.275,8.142-10.883c1.011-1.722,2.86-2.779,4.857-2.777c1.997,0.002,3.843,1.062,4.852,2.785v0
			c15.916,19.88,27.456,42.896,33.862,67.544l-16.816,26.906c-9.79-5.69-22.276-3.294-29.264,5.617
			c-1.293,1.571-2.473,3.248-3.71,4.865c-1.802-6.445-3.837-12.743-6.123-18.831c-4.478-11.857-10.07-23.263-16.701-34.065
			l0.909-2.56C289.803,98.168,296.516,85.207,304.709,73.192z M293.72,186.671c-9.899,17.367-17.319,36.033-22.045,55.456
			c-9.84-5.536-21.856-5.534-31.694,0.005c-2.087-8.637-4.674-17.146-7.748-25.482c-5.739-13.813-12.629-27.119-20.598-39.777
			c6.274-26.251,18.251-50.798,35.081-71.898c1.012-1.719,2.859-2.775,4.854-2.775c1.995,0,3.842,1.056,4.854,2.775
			c12.035,14.819,21.533,31.528,28.108,49.45C288.413,164.924,291.484,175.704,293.72,186.671z M250.984,19.642L250.984,19.642
			c1.012-1.72,2.859-2.775,4.854-2.775c1.995,0,3.842,1.056,4.854,2.775c11.651,14.354,20.914,30.49,27.433,47.79
			c-6.187,9.546-11.531,19.612-15.973,30.084c-0.875-1.115-1.671-2.321-2.569-3.407c-7.53-9.614-21.313-11.556-31.206-4.398
			c-3.988-8.497-8.624-16.676-13.866-24.462C230.92,48.766,239.85,33.38,250.984,19.642z M191.25,61.883L191.25,61.883
			c1.014-1.73,2.871-2.791,4.876-2.784c2.005,0.007,3.855,1.08,4.857,2.817c2.47,2.957,4.789,6.036,6.95,9.225
			c7.23,10.252,13.296,21.278,18.088,32.872c-11.92,17.099-21.118,35.942-27.265,55.858c-7.227-6.836-18.091-8.1-26.694-3.105
			l-15.414-24.66C162.972,106.473,174.777,82.515,191.25,61.883z M110.767,232.258c-0.024-37.786,6.41-75.298,19.025-110.916
			l30.077,48.115c-17.262,23.866-29.231,51.141-35.108,80.002c-3.716-2.224-7.522-4.316-11.419-6.275l-2.575-1.288V232.258z
			 M172.789,358.201c-36.754-24.406-63.453-61.269-75.179-103.802l8.099,4.051c7.023,3.518,13.767,7.568,20.173,12.115
			c0.167,0.117,0.302,0.256,0.477,0.36c18.025,12.857,33.046,29.473,44.025,48.7l7.951,13.917
			C175.936,341.628,174.084,349.866,172.789,358.201z M185.2,311.159c-11.412-19.938-26.745-37.357-45.074-51.206
			c5.135-29.944,17.215-58.268,35.27-82.702c1.322-0.959,2.333-2.285,2.906-3.814l0.148-0.194c1.015-1.741,2.884-2.805,4.898-2.792
			s3.869,1.104,4.86,2.858c2.4,2.85,4.775,5.983,6.9,9c8.197,12.84,15.278,26.359,21.167,40.408
			c3.854,10.367,6.898,21.017,9.106,31.854c-16.67,16.646-30.048,36.288-39.433,57.896L185.2,311.159z M222.15,487.875l6.985-89.522
			c17.653,3.218,35.742,3.218,53.396,0.001l6.985,89.521C267.973,496.925,243.694,496.925,222.15,487.875z M255.834,383.7
			c-23.399-0.124-46.441-5.746-67.269-16.41c1.294-10.833,3.613-21.519,6.925-31.914c0.139-0.35,0.254-0.708,0.344-1.074
			c8.752-26.922,24.091-51.231,44.625-70.719l1.925-1.75c1.025-0.942,2.058-1.892,3.125-2.808c0.225-0.2,0.45-0.408,0.65-0.625
			c5.655-4.507,13.674-4.51,19.333-0.009c0.208,0.217,0.433,0.433,0.667,0.633c1.067,0.917,2.1,1.867,3.125,2.808l1.758,1.6
			c20.611,19.52,36.01,43.887,44.793,70.881c0.09,0.36,0.204,0.713,0.341,1.058c3.316,10.396,5.636,21.084,6.929,31.919
			C302.276,377.955,279.233,383.576,255.834,383.7z M325.717,312.471c-9.391-21.603-22.77-41.242-39.435-57.89
			c4.381-21.951,12.419-43.01,23.777-62.298c4.021-6.664,8.519-13.028,13.458-19.042c1.012-1.719,2.859-2.775,4.854-2.775
			c1.995,0,3.842,1.056,4.854,2.775l0.13,0.173c0.561,1.494,1.541,2.795,2.822,3.746c10.61,13.841,19.092,29.191,25.165,45.54
			c4.506,12.083,7.927,24.544,10.225,37.233c-18.34,13.852-33.683,31.278-45.1,51.225L325.717,312.471z M338.882,358.204
			L338.882,358.204c-1.294-8.336-3.148-16.576-5.549-24.663l7.951-13.917c10.979-19.227,26-35.842,44.025-48.7
			c0.175-0.104,0.31-0.244,0.477-0.36c6.406-4.547,13.149-8.597,20.173-12.115l8.101-4.052
			C402.337,296.933,375.638,333.799,338.882,358.204z"/>
	</g>
</g>
<g>
</g>
<g>
</g>
<g>
</g>
<g>
</g>
<g>
</g>
<g>
</g>
<g>
</g>
<g>
</g>
<g>
</g>
<g>
</g>
<g>
</g>
<g>
</g>
<g>
</g>
<g>
</g>
<g>
</g>
</svg>
