<svg id="Layer_5" enable-background="new 0 0 64 64" height="512" viewBox="0 0 64 64" width="512" xmlns="http://www.w3.org/2000/svg"><g><path d="m61.054 25.778c.621-1.157.946-2.448.946-3.778 0-4.271-3.364-7.771-7.582-7.989-1.207-2.985-4.156-5.011-7.418-5.011-.534 0-1.057.059-1.566.161-1.653-4.158-6.839-8.161-13.434-8.161s-11.781 4.002-13.434 8.161c-.509-.102-1.032-.161-1.566-.161-3.262 0-6.211 2.026-7.418 5.011-4.218.218-7.582 3.718-7.582 7.989 0 1.33.325 2.621.946 3.778-1.26 1.451-1.946 3.277-1.946 5.222 0 4.411 3.589 8 8 8 .236 0 .477-.012.727-.037 1.512 1.912 3.813 3.037 6.273 3.037.342 0 .677-.029 1.007-.071l4.317 6.044c1.096 1.536 1.676 3.345 1.676 5.232v9.795h9 9v-9.795c0-1.886.58-3.695 1.676-5.231l4.317-6.044c.33.041.665.07 1.007.07 2.46 0 4.761-1.125 6.273-3.037.25.025.491.037.727.037 4.411 0 8-3.589 8-8 0-1.944-.686-3.77-1.946-5.222zm-29.054-22.778c5.6 0 10.119 3.389 11.533 6.8-1.775.856-3.204 2.351-3.956 4.23-.19-.019-.382-.03-.577-.03-.359 0-.716.033-1.067.098-.437-2.882-2.931-5.098-5.933-5.098s-5.496 2.216-5.933 5.098c-.351-.065-.708-.098-1.067-.098-.195 0-.387.011-.577.029-.752-1.879-2.182-3.373-3.957-4.229 1.415-3.41 5.935-6.8 11.534-6.8zm9.851 21.201c.741.755 1.149 1.749 1.149 2.799 0 2.206-1.794 4-4 4-.558 0-1.111-.122-1.644-.363l-1.255-.568-.151 1.37c-.223 2.03-1.922 3.561-3.95 3.561s-3.727-1.531-3.95-3.562l-.151-1.37-1.255.568c-.533.242-1.086.364-1.644.364-2.206 0-4-1.794-4-4 0-1.05.408-2.044 1.149-2.799l.688-.701-.688-.701c-.741-.755-1.149-1.749-1.149-2.799 0-2.206 1.794-4 4-4 .557 0 1.106.121 1.635.358l1.563.703-.181-1.91c-.007-.049-.017-.099-.017-.151 0-2.206 1.794-4 4-4s4 1.794 4 4c0 .052-.01.102-.017.151l-.181 1.91 1.563-.703c.529-.237 1.078-.358 1.635-.358 2.206 0 4 1.794 4 4 0 1.05-.408 2.044-1.149 2.799l-.688.701zm-.748 13.833-2.55 3.506c-.447.614-1.292.766-1.924.344-.394-.263-.629-.702-.629-1.175v-5.272c.763-.693 1.358-1.572 1.685-2.588.431.101.872.151 1.315.151.371 0 .732-.039 1.085-.103-.05.364-.085.731-.085 1.103 0 1.472.407 2.848 1.103 4.034zm-17.188-5.137c.353.064.714.103 1.085.103.443 0 .884-.05 1.315-.15.327 1.016.922 1.894 1.685 2.588v5.272c0 .473-.235.912-.629 1.174-.631.422-1.476.271-1.924-.344l-2.55-3.506c.697-1.187 1.103-2.562 1.103-4.034 0-.372-.035-.739-.085-1.103zm-12.901 4.439-.36-.538-.638.108c-.37.063-.704.094-1.016.094-3.309 0-6-2.691-6-6 0-1.662.669-3.209 1.884-4.356l.618-.583-.477-.704c-.671-.993-1.025-2.153-1.025-3.357 0-3.309 2.691-6 6-6l1.028.045.221-.748c.748-2.529 3.112-4.297 5.751-4.297 2.392 0 4.527 1.429 5.478 3.563-2.05.955-3.478 3.03-3.478 5.437 0 1.27.396 2.484 1.13 3.5-.734 1.016-1.13 2.23-1.13 3.5 0 2.065 1.048 3.888 2.64 4.968.234.651.36 1.332.36 2.032 0 3.309-2.691 6-6 6-2.004 0-3.868-.996-4.986-2.664zm30.035 9.475c-1.341 1.877-2.049 4.088-2.049 6.394v1.795h-4v2h4v4h-7-7v-2h4v-2h-4v-3.795c0-2.306-.708-4.516-2.049-6.394l-3.877-5.427c.958-.4 1.822-.982 2.549-1.702l2.207 3.034c.668.918 1.703 1.408 2.757 1.408.651 0 1.311-.187 1.894-.576.951-.634 1.52-1.695 1.52-2.838v-4.062c.627.223 1.298.352 1.999.352s1.372-.129 2-.353v4.062c0 1.143.568 2.204 1.52 2.838.583.389 1.242.576 1.894.576 1.054 0 2.09-.49 2.757-1.408l2.207-3.034c.727.72 1.591 1.301 2.549 1.701zm13.951-9.811c-.313 0-.646-.031-1.016-.093l-.638-.108-.36.538c-1.118 1.667-2.982 2.663-4.986 2.663-3.309 0-6-2.691-6-6 0-.7.126-1.381.36-2.032 1.592-1.08 2.64-2.903 2.64-4.968 0-1.27-.396-2.484-1.13-3.5.734-1.016 1.13-2.23 1.13-3.5 0-2.407-1.428-4.482-3.478-5.437.95-2.134 3.085-3.563 5.478-3.563 2.639 0 5.003 1.768 5.751 4.298l.221.748 1.028-.046c3.309 0 6 2.691 6 6 0 1.204-.354 2.364-1.025 3.356l-.476.703.617.583c1.215 1.15 1.884 2.697 1.884 4.358 0 3.309-2.691 6-6 6z"/><path d="m51 32v2c2.757 0 5-2.243 5-5h-2c0 1.654-1.346 3-3 3z"/><path d="m51 18c-2.206 0-4 1.794-4 4h2c0-1.103.897-2 2-2z"/><path d="m55 19v2c1.103 0 2 .897 2 2h2c0-2.206-1.794-4-4-4z"/><path d="m44 34h2c0-.551.448-1 1-1v-2c-1.654 0-3 1.346-3 3z"/><path d="m10 29h-2c0 2.757 2.243 5 5 5v-2c-1.654 0-3-1.346-3-3z"/><path d="m13 18v2c1.103 0 2 .897 2 2h2c0-2.206-1.794-4-4-4z"/><path d="m9 19c-2.206 0-4 1.794-4 4h2c0-1.103.897-2 2-2z"/><path d="m17 31v2c.552 0 1 .449 1 1h2c0-1.654-1.346-3-3-3z"/><circle cx="13" cy="26" r="1"/><circle cx="24" cy="20" r="1"/><circle cx="28" cy="26" r="1"/><circle cx="47" cy="14" r="1"/><circle cx="51" cy="25" r="1"/><circle cx="48" cy="28" r="1"/><circle cx="24" cy="27" r="1"/><circle cx="38" cy="27" r="1"/><circle cx="32" cy="30" r="1"/><circle cx="35" cy="21" r="1"/><circle cx="31" cy="18" r="1"/><circle cx="6" cy="32" r="1"/><path d="m27 52h4v2h-4z"/><path d="m33 48h4v2h-4z"/><path d="m26 46h4v2h-4z"/></g></svg>