<?xml version="1.0" encoding="iso-8859-1"?>
<!-- Generator: Adobe Illustrator 19.0.0, SVG Export Plug-In . SVG Version: 6.00 Build 0)  -->
<svg version="1.1" id="Capa_1" xmlns="http://www.w3.org/2000/svg" xmlns:xlink="http://www.w3.org/1999/xlink" x="0px" y="0px"
	 viewBox="0 0 512.001 512.001" style="enable-background:new 0 0 512.001 512.001;" xml:space="preserve">
<g>
	<g>
		<path d="M162.048,30.479c-2.719-4.806-8.828-6.496-13.637-3.774c-4.836,2.666-6.596,8.749-3.93,13.585
			c1.824,3.307,5.242,5.175,8.767,5.175c1.633,0,3.288-0.401,4.819-1.245l0.21-0.117C163.084,41.383,164.767,35.287,162.048,30.479z
			"/>
	</g>
</g>
<g>
	<g>
		<path d="M417.847,78.927C377.008,28.744,316.638,0,251.959,0c-21.759,0-43.228,3.259-63.81,9.687
			c-5.271,1.646-8.21,7.255-6.563,12.526c1.646,5.272,7.257,8.21,12.526,6.564C212.762,22.953,232.224,20,251.959,20
			c53.571,0,103.887,21.761,140.414,60.224c-2.08,9.86-6.848,16.564-14.185,19.919c-5.918,2.707-11.743,4.298-11.743,4.298
			c-14.44-10.974-32.432-17.503-51.926-17.503c-1.646,0-3.316,0.048-4.964,0.142c-18.002,1.033-36.628-2.603-55.355-10.8
			c-9.882-4.326-20.401-6.519-31.269-6.519c-31.046,0-59.128,18.556-71.495,46.682c-4.048-2.416-11.096-7.558-17.156-16.759
			c-3.038-4.612-9.24-5.889-13.853-2.851c-4.612,3.038-5.888,9.239-2.851,13.852c3.848,5.843,8.029,10.506,12.014,14.188
			c-52.716,7.833-93.291,53.391-93.291,108.251c0,8.137,0.896,16.218,2.672,24.105c-6.753,5.7-12.738,12.172-17.872,19.225
			c-0.712-6.782-1.092-13.613-1.092-20.466c0-57.545,25.35-111.753,69.548-148.725c0.713-0.597,1.34-1.29,1.861-2.059
			c10.366-15.292,22.848-29.021,37.097-40.809c4.256-3.521,4.852-9.824,1.331-14.08s-9.822-4.851-14.079-1.332
			c-15.351,12.698-28.841,27.443-40.113,43.84C27.558,133.583,0.007,192.969,0.007,255.988c0,16.832,1.986,33.563,5.857,49.791
			C2.036,317,0.007,328.877,0.007,340.952c0,35.758,17.11,68.671,46.055,89.219c0.077,11.406,4.922,23.113,13.844,32.962
			c12.162,13.426,29.937,21.168,48.205,21.168c0.035,0,0.069-0.002,0.104-0.002c35.743,27.693,80.952,27.702,120.971,27.702
			c14.208,0,28.035-2.686,41.098-7.983c28.993-11.757,59.221-17.717,89.851-17.717c0.103,0,0.211,0,0.314,0
			c0.45,0,0.898-0.001,1.342-0.007c26.164-0.304,50.892-10.704,69.626-29.283c17.006-16.864,27.31-38.719,29.454-62.171
			c0.087-0.095,0.181-0.18,0.265-0.279c32.796-38.57,50.858-87.733,50.858-138.433C511.994,184.951,476.828,118.826,417.847,78.927z
			 M108.018,464.3c-12.647-0.016-24.917-5.352-33.29-14.595c-5.169-5.706-8.221-12.341-8.63-18.478
			c7.413-4.284,22.394-13.826,45.021-32.272c1.777-1.449,3.003-3.465,3.471-5.71c2.539-12.179,5.822-36.033-0.717-58.973
			c-0.106-0.373-0.061-0.427,0.015-0.515c0.212-0.245,0.561-0.373,0.668-0.354c0.001,0,0.103,0.044,0.286,0.237
			c8.318,8.751,11.476,21.189,12.66,30.083c0.496,3.731,3.046,6.867,6.598,8.115c3.547,1.249,7.502,0.396,10.224-2.205
			c12.336-11.789,24.151-24.173,35.118-36.806c1.331-1.533,2.163-3.436,2.388-5.453c1.849-16.658,2.444-47.151-10.408-80.863
			c10.611,16.471,16.247,33.863,18.036,46.583c0.567,4.039,3.531,7.328,7.49,8.313c3.955,0.983,8.117-0.535,10.51-3.838
			c28.904-39.892,50.738-82.607,64.893-126.959c0.165-0.518,0.249-0.532,0.449-0.565c0.505-0.082,1.006,0.144,1.096,0.263
			c0,0.001,0.072,0.143,0.07,0.541c-0.144,31.218-5.579,62.689-16.155,93.537c-1.07,3.123-0.53,6.574,1.443,9.221
			c1.974,2.647,5.129,4.154,8.426,4.014c9.273-0.379,25.92-2.154,44.127-9.269c-20.031,17.646-43.707,25.962-64.827,31.748
			c-2.749,0.753-5.047,2.644-6.314,5.197c-9.81,19.759-21.883,39.495-35.883,58.659c-1.906,2.61-2.434,5.981-1.415,9.05
			c1.019,3.069,3.458,5.454,6.548,6.406c16.371,5.041,53.98,12.13,123.754,4.009c-47.592,17.666-109.835,20.445-153.135,17.019
			c-3.08-0.235-6.119,0.958-8.2,3.255C149.007,429.445,131.315,446.139,108.018,464.3z M443.742,296.83
			c-8.162,23.616-9.726,48.01-4.52,70.544c1.495,6.465,2.184,13.148,2.052,19.863c-0.848,43.091-36.608,78.557-79.723,79.059
			c-0.291,0.003-0.582,0.005-0.879,0.005c-0.175-0.001-0.353,0-0.528,0c-33.228,0-65.987,6.453-97.377,19.184
			c-10.664,4.324-21.963,6.517-33.582,6.517c-33.739,0-71.492-0.016-101.002-18.193c19.369-15.704,35.964-31.55,55.684-53.075
			c27.745,1.817,101.342,3.715,161.915-20.548c9.148-3.665,14.002-13.256,11.541-22.806c-2.463-9.561-11.354-15.612-21.146-14.402
			c-53.529,6.64-87.126,4.216-106.654,0.609c10.181-14.93,19.242-30.141,27.045-45.402c25.154-7.223,55.919-19.239,79.912-46.222
			c5.691-6.401,5.975-15.594,0.689-22.354c-5.31-6.792-14.339-8.742-21.96-4.745c-12.093,6.345-24.104,9.588-33.794,11.228
			c8.202-28.16,12.419-56.735,12.55-85.148c0.049-10.514-7.175-19.005-17.566-20.648c-10.4-1.644-19.902,4.209-23.102,14.235
			c-11.396,35.709-28.033,70.34-49.564,103.216c-4.971-14.706-14.045-33.751-30.469-51.339c-6.073-6.505-15.749-7.471-23.007-2.292
			c-7.23,5.161-9.456,14.592-5.292,22.427c18.236,34.309,18.91,67.256,17.292,85.559c-6.169,7.018-12.606,13.949-19.251,20.729
			c-2.799-7.9-7.093-16.05-13.668-22.968c-6.643-6.987-16.726-8.473-25.09-3.695c-8.401,4.798-12.263,14.276-9.609,23.588
			c4.821,16.913,3.024,34.957,1.04,45.969c-19.377,15.598-32.284,23.889-38.71,27.672c-23.249-16.829-36.962-43.499-36.962-72.443
			c0-10.584,1.811-20.836,5.252-30.421c0.25-0.52,0.448-1.064,0.605-1.623c4.369-11.453,11.093-21.906,19.88-30.764
			c8.973,18.657,23.375,27.865,24.124,28.333c1.654,1.036,3.498,1.53,5.319,1.53c3.334,0,6.595-1.656,8.489-4.683
			c2.931-4.682,1.538-10.835-3.143-13.766c-0.158-0.102-15.838-10.399-20.515-30.768c-0.013-0.057-0.033-0.111-0.047-0.167
			c-0.033-0.132-0.061-0.265-0.099-0.396c-2.372-8.13-3.574-16.576-3.574-25.104c0-49.321,40.125-89.446,89.445-89.446l0.418,0.001
			c0.036,0,0.071,0,0.107,0c9.82,0,18.65-6.221,21.995-15.51c8.27-22.974,30.237-38.409,54.666-38.409
			c8.089,0,15.911,1.628,23.249,4.84c21.637,9.471,43.343,13.654,64.517,12.447c1.269-0.073,2.555-0.109,3.822-0.109
			c36.392,0,65.998,29.607,65.998,65.999v0.193c-0.034,11.267,6.76,21.158,17.308,25.198c30.016,11.497,50.183,40.823,50.183,72.973
			C448.006,280.054,446.571,288.643,443.742,296.83z M459.014,364.288c-0.102-0.472-0.195-0.946-0.304-1.416
			c-4.358-18.87-2.998-39.448,3.936-59.51c3.558-10.295,5.361-21.081,5.361-32.062c0-20.25-6.12-39.691-17.699-56.223
			c-11.311-16.149-26.985-28.4-45.329-35.426c-2.72-1.042-4.471-3.578-4.462-6.491v-0.224c0-19.919-6.826-38.263-18.236-52.858
			c9.595-3.311,19.692-10.343,25.744-23.611c52.629,36.267,83.969,95.706,83.969,159.661
			C491.994,294.8,480.4,332.483,459.014,364.288z"/>
	</g>
</g>
<g>
	<g>
		<path d="M418.642,277.573c-5.219-1.798-10.912,0.98-12.709,6.203l-0.126,0.366c-1.797,5.223,0.98,10.912,6.203,12.709
			c1.077,0.371,2.175,0.547,3.254,0.547c4.15,0,8.029-2.604,9.455-6.75l0.126-0.366C426.642,285.059,423.865,279.37,418.642,277.573
			z"/>
	</g>
</g>
<g>
	<g>
		<path d="M419.736,371.873c-3.369-14.585-4.33-29.812-2.857-45.256c0.524-5.498-3.508-10.38-9.006-10.904
			c-5.502-0.519-10.38,3.509-10.904,9.006c-1.677,17.591-0.574,34.969,3.28,51.654c0.753,3.263,1.1,6.652,1.033,10.077
			c-0.426,21.719-18.456,39.595-40.189,39.849c-5.523,0.064-9.947,4.593-9.883,10.115c0.063,5.484,4.527,9.884,9.997,9.884
			c0.039,0,0.079,0,0.118-0.001c32.421-0.377,59.315-27.049,59.953-59.453C421.379,381.776,420.86,376.74,419.736,371.873z"/>
	</g>
</g>
<g>
</g>
<g>
</g>
<g>
</g>
<g>
</g>
<g>
</g>
<g>
</g>
<g>
</g>
<g>
</g>
<g>
</g>
<g>
</g>
<g>
</g>
<g>
</g>
<g>
</g>
<g>
</g>
<g>
</g>
</svg>
