<?xml version="1.0" encoding="iso-8859-1"?>
<!-- Generator: Adobe Illustrator 19.0.0, SVG Export Plug-In . SVG Version: 6.00 Build 0)  -->
<svg version="1.1" id="Layer_1" xmlns="http://www.w3.org/2000/svg" xmlns:xlink="http://www.w3.org/1999/xlink" x="0px" y="0px"
	 viewBox="0 0 496 496" style="enable-background:new 0 0 496 496;" xml:space="preserve">
<path style="fill:#F9BA48;" d="M384,302.228c0,44.184-35.816,80-80,80s-80-35.816-80-80h-80c0,88.368,71.632,160,160,160
	s160-71.632,160-160H384z"/>
<g>
	<path style="fill:#333333;" d="M208,126.228c19.144,0,32-12.856,32-32h-16c0,10.32-5.68,16-16,16s-16-5.68-16-16h-16
		C176,113.372,188.856,126.228,208,126.228z"/>
	<path style="fill:#333333;" d="M396.344,294.228c2-7.024,3.656-17.272,3.656-32c0-103.048-78.336-188.12-178.584-198.84
		c2.744-6.736,6.696-11.912,12.048-16.184c11.824,4.736,24.552,7.632,37.176,7.632c3.488,0,6.968-0.216,10.416-0.68L278.944,38.3
		c-33.48,4.44-68.104-18.36-80.304-36.528l-13.28,8.92c7.112,10.6,18.76,20.952,32.664,28.984
		c-6.32,6.504-10.592,14.024-13.32,22.672c-1.568-0.04-3.128-0.12-4.704-0.12c-110.28,0-200,89.72-200,200
		c0,109.592,88.616,198.84,197.952,199.944c30.408,20.232,66.864,32.056,106.048,32.056c105.864,0,192-86.136,192-192v-8H396.344z
		 M85.656,406.228H120v-16H99.096l4.488-13.472l-15.168-5.064l-6.176,18.536H68c-6.88-7.088-13.192-14.728-18.864-22.848L68,342.228
		h28v-16H68.528l-21.672-36.12l-13.72,8.232l21.232,35.392l-14.384,19.176C25.992,328.3,17.496,300.196,16.2,270.228h52.488
		l21.656,21.656l11.312-11.312L81.384,260.3l12.032-30.072H120v-16H96v-32H80v38.456l-13.416,33.544H16.2
		c4.208-97.76,85.024-176,183.8-176c0.44,0,0.88,0.032,1.32,0.032c-0.936,7.368-1.32,15.312-1.32,23.968h16
		c0-9.016,0.48-16.56,1.416-23.152c54.144,5.112,101.512,33.776,131.752,75.624l-24.752,12.376l7.16,14.312l26.472-13.232
		c10.896,18.24,18.704,38.512,22.752,60.104l-34.88-5.816l-47.392-15.8l-5.064,15.168l38.064,12.688l-10.192,15.288l13.312,8.872
		l13.128-19.696l35.368,5.896c0.552,5.72,0.856,11.512,0.856,17.368c0,18.776-2.872,28.112-4.52,32H112v8
		c0,56.368,24.424,107.128,63.232,142.288C141.672,439.972,110.968,426.364,85.656,406.228z M375.528,310.228
		c-3.992,35.944-34.528,64-71.528,64s-67.536-28.056-71.528-64H375.528z M304,478.228c-94.368,0-171.616-74.656-175.824-168H216.4
		c4.064,44.784,41.776,80,87.6,80s83.536-35.216,87.592-80h88.224C475.616,403.572,398.368,478.228,304,478.228z"/>
	
		<rect x="40.005" y="203.811" transform="matrix(-0.8321 0.5547 -0.5547 -0.8321 208.999 373.1945)" style="fill:#333333;" width="16.001" height="28.849"/>
	<polygon style="fill:#333333;" points="200,278.228 200,262.228 149.768,262.228 143.584,243.7 128.416,248.756 138.232,278.228 	
		"/>
	<rect x="296" y="350.228" style="fill:#333333;" width="16" height="16"/>
	
		<rect x="260.68" y="342.228" transform="matrix(-0.7071 0.7071 -0.7071 -0.7071 711.968 405.5493)" style="fill:#333333;" width="22.624" height="16"/>
	
		<rect x="327.998" y="338.918" transform="matrix(-0.7071 0.7071 -0.7071 -0.7071 821.2348 360.2926)" style="fill:#333333;" width="16" height="22.624"/>
	<rect x="248" y="318.228" style="fill:#333333;" width="16" height="16"/>
	<rect x="344" y="318.228" style="fill:#333333;" width="16" height="16"/>
</g>
<g>
</g>
<g>
</g>
<g>
</g>
<g>
</g>
<g>
</g>
<g>
</g>
<g>
</g>
<g>
</g>
<g>
</g>
<g>
</g>
<g>
</g>
<g>
</g>
<g>
</g>
<g>
</g>
<g>
</g>
</svg>
