<svg height="512pt" viewBox="0 -13 512.00007 512" width="512pt" xmlns="http://www.w3.org/2000/svg"><path d="m379.910156 355.039062c-1.53125 0-3 .339844-4.378906 1.019532-4.960938 2.421875-7.023438 8.421875-4.601562 13.371094 1.699218 3.460937 5.140624 5.609374 9 5.609374 1.519531 0 3-.339843 4.378906-1.019531 2.402344-1.167969 4.199218-3.210937 5.070312-5.730469.859375-2.527343.699219-5.238281-.480468-7.640624-1.6875-3.457032-5.128907-5.609376-8.988282-5.609376zm0 0"/><path d="m343.980469 372.632812c-1.484375-.011718-2.984375.304688-4.390625.984376l-8.980469 4.402343c-4.960937 2.417969-7.007813 8.417969-4.589844 13.367188 2.332031 4.773437 8.605469 6.9375 13.371094 4.59375l8.992187-4.390625c4.949219-2.421875 7.007813-8.417969 4.589844-13.371094-1.710937-3.496094-5.300781-5.558594-8.992187-5.585938zm0 0"/><path d="m186.878906 152.421875c.140625.007813.292969.007813.429688.007813 5.371094 0 9.761718-4.210938 9.992187-9.578126.109375-2.671874-.832031-5.222656-2.628906-7.191406-1.8125-1.960937-4.28125-3.109375-6.953125-3.21875-5.539062-.261718-10.179688 4.058594-10.410156 9.570313-.105469 2.667969.820312 5.21875 2.632812 7.1875 1.808594 1.972656 4.269532 3.109375 6.9375 3.222656zm0 0"/><path d="m79.25 248c0 5.523438 4.476562 10 10 10 30.328125 0 55-24.671875 55-55 0-5.523438-4.476562-10-10-10s-10 4.476562-10 10c0 19.300781-15.699219 35-35 35-5.523438 0-10 4.476562-10 10zm0 0"/><path d="m423.960938 218.488281c-1.699219 0-3.378907.441407-4.871094 1.28125-2.328125 1.300781-4.019532 3.429688-4.738282 6-.730468 2.582031-.410156 5.269531.898438 7.601563 1.761719 3.160156 5.109375 5.117187 8.730469 5.117187 1.699219 0 3.378906-.4375 4.867187-1.269531 2.332032-1.296875 4.023438-3.4375 4.75-6.007812.722656-2.570313.402344-5.269532-.898437-7.601563-1.769531-3.160156-5.117188-5.121094-8.738281-5.121094zm0 0"/><path d="m392.929688 198.160156c-5.167969-.910156-10.570313-1.378906-16.039063-1.378906-4.011719 0-6.558594.257812-6.660156.269531-5.488281.570313-9.488281 5.488281-8.929688 10.96875.53125 5.121094 4.800781 8.980469 9.941407 8.980469.339843 0 .6875-.019531 1.027343-.050781h.011719c.140625-.019531 1.890625-.167969 4.609375-.167969h.039063c2.949218 0 7.507812.179688 12.519531 1.070312.582031.109376 1.171875.160157 1.75.160157 4.851562 0 8.988281-3.480469 9.839843-8.261719.960938-5.429688-2.679687-10.632812-8.109374-11.589844zm0 0"/><path d="m511.957031 310.078125c-.269531-2.925781-1.8125-5.585937-4.21875-7.269531l-32.570312-22.808594c12.992187-12.714844 21.082031-30.425781 21.082031-50 0-17.332031-6.460938-33.996094-17.945312-46.777344 3.90625-8.859375 5.945312-18.480468 5.945312-28.222656 0-21.609375-9.828125-41.675781-26.597656-54.90625-.140625-.113281.222656-1.910156.25-2.164062.078125-.796876.148437-1.597657.199218-2.398438.097657-1.507812.148438-3.019531.148438-4.53125 0-38.597656-31.402344-70-70-70-3.746094 0-7.480469.300781-11.160156.890625-.8125-.859375-1.648438-1.699219-2.507813-2.515625-.066406-.066406-.140625-.128906-.207031-.195312-12.886719-12.289063-30.339844-19.179688-48.125-19.179688-38.597656 0-70 31.402344-70 70 0 1.875.074219 3.746094.226562 5.605469-6.9375-.917969-14.09375-.789063-21.027343.394531-12.238281-22.121094-35.425781-36-61.199219-36-22.300781 0-43.273438 10.769531-56.378906 28.539062-5.140625-1.023437-10.367188-1.539062-15.621094-1.539062-44.113281 0-80 35.886719-80 80 0 15.421875 4.5 30.542969 12.808594 43.410156-12.359375 14.425782-19.308594 32.96875-19.308594 52.089844 0 15.195312 4.242188 29.753906 12.125 42.339844l-22.667969 12.382812c-2.375 1.300782-4.125 3.503906-4.84375 6.113282-.722656 2.609374-.3554685 5.398437 1.015625 7.734374 15.027344 25.542969 50.609375 61.789063 88.550782 90.1875 25.363281 18.980469 72.652343 49.886719 116.4375 54.210938-1.414063 11.65625-1.503907 18.960938-1.503907 20.53125 0 5.523438 4.476563 10 10 10h59.199219c5.523438 0 10-4.476562 10-10 0-.089844-.003906-.40625-.039062-.941406-.152344-2.207032-.480469-9.035156.25-19.304688 94.601562-5.898437 219.476562-132.25 224.867187-137.753906 2.058594-2.101562 3.085937-4.996094 2.816406-7.921875zm-85.707031-30.078125c-1.460938 0-2.964844-.070312-4.597656-.222656-5.277344-.472656-10.007813 3.238281-10.796875 8.476562-2.546875 16.957032-17.421875 29.746094-34.605469 29.746094-13.058594 0-24.808594-7.292969-30.804688-18.433594-.398437-.738281-.769531-1.488281-1.109374-2.253906 12.15625-10.097656 19.914062-25.3125 19.914062-42.3125 0-5.523438-4.476562-10-10-10s-10 4.476562-10 10c0 19.300781-15.699219 35-35 35-19.296875 0-35-15.699219-35-35v-1.039062c5.644531 1.960937 11.699219 3.039062 18 3.039062 5.523438 0 10-4.476562 10-10s-4.476562-10-10-10c-19.296875 0-35-15.699219-35-35s15.703125-35 35-35c8.710938 0 17.058594 3.21875 23.503906 9.0625 4.089844 3.710938 10.414063 3.402344 14.125-.6875 3.710938-4.09375 3.398438-10.417969-.691406-14.125-2.949219-2.679688-6.167969-4.976562-9.570312-6.929688 2.675781-21.058593 20.269531-35.320312 44.632812-35.320312 25.363281 0 46 20.636719 46 46 0 6.679688 9.503906 15 16 15 27.230469 0 50 22.773438 50 50 0 27.570312-22.429688 50-50 50zm-100-260c14.769531 0 30.046875 7.410156 39.230469 19.027344 5.066406 6.425781 8.535156 14.03125 9.980469 22.089844 2.25 12.574218 21.976562 9.28125 19.6875-3.527344-1.023438-5.734375-2.757813-11.273438-5.15625-16.542969.722656 1.386719 10.546874 1.511719 12.414062 2.03125 9.589844 2.660156 18.242188 8.613281 24.53125 16.289063 12.714844 15.511718 14.835938 38.035156 5.1875 55.628906-2.652344 4.84375-.878906 10.921875 3.960938 13.578125 1.527343.835937 3.175781 1.234375 4.800781 1.234375 3.53125 0 6.957031-1.878906 8.777343-5.195313.574219-1.042969 1.109376-2.105469 1.628907-3.179687 8.253906 9.082031 12.957031 20.953125 12.957031 33.566406 0 5.054688-.792969 10.054688-2.28125 14.839844-9.4375-5.628906-20.292969-9.109375-31.898438-9.738282-1.964843-26.65625-19.832031-48.960937-44.125-57.441406 1.171876.410156 1.34375-6.492187 1.136719-7.367187-1.054687-4.46875-5.128906-7.734375-9.722656-7.734375-3.351563 0-6.460937 1.660156-8.320313 4.449218-1.398437 2.097657-1.9375 4.589844-1.550781 7.070313-1.074219-.050781-2.152343-.078125-3.238281-.078125-21.476562 0-39.585938 8.351562-51.195312 22.078125-.40625-1.117187-.839844-2.226563-1.304688-3.328125-3.53125-8.328125-8.578125-15.820312-15-22.25-5.59375-5.585938-11.992188-10.132812-19.042969-13.542969-.964843-3.910156-1.457031-7.914062-1.457031-11.957031 0-27.570312 22.429688-50 50-50zm-238.507812 151.523438c-2.351563-2.722657-5.496094-3.574219-8.953126-3.574219-9.738281.121093-18.238281 3.992187-25.257812 7.769531-1.042969.578125-2.035156 1.152344-2.972656 1.710938-5.390625-9.171876-8.308594-19.699219-8.308594-30.429688 0-33.082031 26.914062-60 60-60 1.9375 0 3.871094.101562 5.796875.289062-2.457031 7.125-3.796875 14.761719-3.796875 22.710938 0 5.523438 4.476562 10 10 10 5.519531 0 10-4.476562 10-10 0-27.167969 22.839844-50 50-50 17.085938 0 32.574219 8.546875 41.703125 22.40625-8.238281 4.109375-15.679687 9.84375-21.824219 17.003906-3.554687 4.144532-3.074218 10.546875 1.070313 14.101563 4.117187 3.527343 10.578125 3.023437 14.101562-1.070313 18.511719-21.53125 53.09375-22.953125 73.308594-2.800781 9.429687 9.460937 14.632813 22.019531 14.640625 35.359375v2.230469c-1.65625-.152344-3.324219-.230469-5-.230469-26.722656 0-49.046875 19.160156-53.976562 44.464844-10.414063-1.191406-25.335938-4.625-32.402344-12.941406-3.578125-4.207032-9.890625-4.71875-14.097656-1.140626-4.207032 3.578126-4.71875 9.886719-1.144532 14.09375 12.605469 14.828126 34.785156 18.964844 47.472656 20.101563 2.070313 11.746094 7.875 22.207031 16.148438 30.128906v13.292969c0 15.273438 6.273438 29.09375 16.363281 39.070312-8.945312 12.78125-17.121093 26.027344-24.394531 39.589844-15.9375-15.457031-36.839844-39.164062-52.363281-61.144531 2.824219-6.613281 4.394531-13.882813 4.394531-21.515625 0-5.523438-4.480469-10-10-10-5.523438 0-10 4.476562-10 10 0 20.328125-19.023438 37.230469-39.339844 34.722656-3.847656-.480468-7.621094 1.3125-9.6875 4.589844-2.0625 3.28125-2.050781 7.457031.035156 10.71875 6.089844 9.527344 13.21875 19.5 20.976563 29.460938-4.019531 1.613281-8.398437 2.507812-12.984375 2.507812-15 0-28.316406-9.542969-33.140625-23.742188-1.359375-4.003906-5.085937-6.71875-9.3125-6.785156-32.558594-.507812-59.050781-27.410156-59.050781-59.972656 0-12.421875 3.941406-24.882812 11.292968-34.914062 6.757813-9.226563 19.335938-19.644532 31.476563-19.644532.089844 0 .183594.007813.273437.007813.269532 0 .507813.011719.726563.019531 5.480469.402344 10.3125-3.796875 10.703125-9.238281.191406-2.664063-.789062-5.242188-2.476562-7.207031zm121.75 264.160156c-29.28125-2.46875-67.113282-20.152344-107.578126-50.441406-35.96875-26.921876-63.425781-55.722657-77.625-75.652344l16.480469-9.003906c12.960938 12.277343 29.378907 19.773437 47.035157 21.507812 9.117187 18.730469 28.210937 30.90625 49.445312 30.90625 9.386719 0 18.222656-2.371094 25.960938-6.535156 9.597656 11.339844 19.730468 22.34375 29.765624 32.289062l-22.625-5.472656c-5.367187-1.296875-10.773437 2-12.070312 7.367188-1.300781 5.367187 2 10.773437 7.367188 12.070312l51.25 12.398438c-3.28125 11.261718-5.671876 21.539062-7.40625 30.566406zm60.3125-17.972656c-4.742188 20.832031-5.878907 37.722656-5.988282 48.289062h-38.421875c1.058594-12.507812 4.230469-35.835938 13.71875-65.066406 1.3125-4.039063-.070312-8.46875-3.449219-11.042969-24.917968-18.984375-57.175781-53.707031-79.855468-85.355469 9.847656-2.324218 18.890625-7.335937 26.082031-14.429687 19.390625 26.25 44.816406 53.710937 60.695313 67.375 4.890624 4.207031 12.652343 2.613281 15.496093-3.164063 8.289063-16.832031 18.03125-33.265625 29.023438-48.957031 6.9375 3.054687 14.445312 4.640625 22.144531 4.640625 4.171875 0 8.300781-.472656 12.324219-1.394531-25.519531 33.574219-42.914063 70.222656-51.769531 109.105469zm16.90625 17.8125c4.894531-29.167969 17.703124-70.902344 50.25-114.085938 10.109374 10.308594 24.140624 16.5625 39.289062 16.5625 23.960938 0 45.070312-15.835938 52.320312-38.039062 10.554688-.34375 20.53125-3.039063 29.414063-7.574219l28.414063 19.894531c-28.992188 27.765625-126.460938 116.105469-199.6875 123.242188zm0 0"/></svg>