<svg id="Capa_1" enable-background="new 0 0 512 512" height="512" viewBox="0 0 512 512" width="512" xmlns="http://www.w3.org/2000/svg"><path id="XMLID_1455_" d="m512 291.284c0-18.836-13.137-34.661-30.73-38.792 2.458-9.799 1.111-20.355-4.196-29.548-5.321-9.217-13.913-15.81-24.193-18.564-.598-.16-1.198-.303-1.799-.436 1.925-4.669 2.993-9.777 2.993-15.133 0-8.999-3.102-17.526-8.397-24.364l24.804-6.646c10.28-2.754 18.872-9.348 24.193-18.564 5.322-9.217 6.735-19.954 3.98-30.233-2.747-10.25-9.256-18.665-17.917-23.856 3.884-6.241 5.961-13.457 5.961-20.991 0-10.643-4.145-20.648-11.67-28.174-13.319-13.319-33.797-15.219-49.16-5.7-5.191-8.666-13.608-15.179-23.861-17.927-21.223-5.685-43.112 6.953-48.798 28.174l-6.646 24.804c-6.838-5.295-15.367-8.397-24.365-8.396-5.098 0-9.97.973-14.455 2.726-2.553-10.063-8.993-19.131-18.673-24.72-9.192-5.308-19.75-6.652-29.547-4.196-4.131-17.594-19.957-30.73-38.792-30.73s-34.66 13.139-38.792 30.73c-9.796-2.455-20.355-1.11-29.548 4.196-19.026 10.984-25.568 35.401-14.584 54.428l12.84 22.238c-8.58 1.091-16.804 4.928-23.167 11.29-7.525 7.526-11.67 17.532-11.67 28.174 0 10.643 4.145 20.648 11.67 28.174l46.177 46.178-155.576 155.573c-11.661 11.66-18.082 27.164-18.082 43.653 0 16.49 6.422 31.993 18.082 43.653l21.595 21.596.005.005 4.028 4.028c12.035 12.035 27.844 18.052 43.652 18.052 15.809 0 31.618-6.018 43.653-18.052l23.632-23.632c3.905-3.905 3.905-10.237 0-14.143-3.905-3.904-10.238-3.904-14.142 0l-23.632 23.632c-16.272 16.271-42.75 16.271-59.021 0l-4.032-4.032-3.608-3.608c30.459-6.625 58.623-21.897 80.831-44.104l88.674-88.674 18.788 18.788-34.359 34.359c-3.905 3.905-3.905 10.237 0 14.143 1.953 1.952 4.512 2.929 7.071 2.929s5.119-.977 7.071-2.929l68.305-68.305 46.178 46.178c7.768 7.768 17.971 11.65 28.173 11.65 10.203 0 20.406-3.883 28.173-11.65 6.363-6.362 10.2-14.587 11.291-23.167l22.239 12.84c19.026 10.985 43.442 4.442 54.428-14.583 5.307-9.192 6.652-19.751 4.196-29.549 17.592-4.132 30.729-19.957 30.729-38.793zm-376.19-140.213c0-5.3 2.064-10.283 5.813-14.031 6.15-6.15 15.79-7.561 23.444-3.431 3.935 2.125 8.804 1.377 11.921-1.831s3.725-8.096 1.488-11.969l-23.349-40.44c-5.471-9.476-2.212-21.637 7.263-27.107 7.105-4.1 15.848-3.45 22.275 1.656 3.005 2.39 7.112 2.847 10.568 1.178 3.457-1.668 5.654-5.168 5.654-9.006v-6.231c0-10.941 8.902-19.844 19.844-19.844s19.844 8.902 19.844 19.844v6.231c0 3.838 2.197 7.338 5.654 9.006s7.564 1.21 10.568-1.177c6.427-5.108 15.17-5.758 22.275-1.657 9.476 5.471 12.734 17.632 7.263 27.107l-23.349 40.44c-2.236 3.873-1.629 8.761 1.488 11.969s7.986 3.957 11.921 1.831c7.654-4.129 17.294-2.72 23.444 3.43 7.737 7.738 7.737 20.327 0 28.063l-86.454 86.454-23.183 23.183-18.788-18.788 22.154-22.154c.22-.22.423-.45.618-.684.235-.195.465-.399.685-.619 3.905-3.905 3.906-10.237 0-14.143l-53.25-53.25c-3.747-3.747-5.811-8.729-5.811-14.03zm-103.586 244.071 125.047-125.047 18.788 18.788-92.091 92.091c-20.108 20.109-34.573 45.07-42.048 72.444-2.994.561-6.01 1.027-9.045 1.397l-.651-.651c-7.883-7.883-12.224-18.363-12.224-29.512 0-11.147 4.341-21.628 12.224-29.51zm84.675 18.761c-14.783 14.784-32.575 26.063-51.972 33.186 7.14-19.466 18.423-37.212 33.184-51.973l129.691-129.691 86.18-86.18c15.534-15.534 15.534-40.812 0-56.348-3.417-3.416-7.371-6.097-11.627-8.022v-18.097c0-10.941 8.902-19.843 19.844-19.843 8.697-.001 16.511 5.818 19.002 14.151 1.281 4.286 5.269 7.181 9.725 7.135 4.472-.064 8.358-3.091 9.516-7.411l12.086-45.105c2.833-10.569 13.738-16.862 24.303-14.032 7.924 2.124 13.647 8.766 14.58 16.922.436 3.813 3.016 7.041 6.64 8.306 3.625 1.266 7.652.344 10.366-2.37l4.407-4.406c7.736-7.736 20.326-7.736 28.063 0 3.748 3.748 5.812 8.73 5.812 14.031s-2.064 10.283-5.812 14.031l-4.407 4.406c-2.714 2.714-3.635 6.742-2.371 10.366s4.492 6.204 8.305 6.641c8.157.933 14.799 6.655 16.922 14.58 1.372 5.119.668 10.467-1.982 15.057-2.65 4.591-6.929 7.874-12.049 9.246l-45.106 12.086c-4.321 1.157-7.347 5.043-7.411 9.516s2.85 8.443 7.135 9.725c8.333 2.491 14.152 10.305 14.152 19.003 0 10.941-8.902 19.844-19.844 19.844h-17.558c-1.884-3.874-4.41-7.476-7.556-10.622-15.534-15.532-40.811-15.535-56.348 0l-86.18 86.18-.274.274zm355.258-102.775h-6.232c-3.838 0-7.338 2.197-9.006 5.653-1.668 3.457-1.21 7.563 1.178 10.568 5.108 6.427 5.758 15.171 1.657 22.275-5.47 9.476-17.63 12.735-27.107 7.263l-40.441-23.349c-3.873-2.235-8.761-1.627-11.969 1.488-3.208 3.117-3.956 7.985-1.832 11.921 4.131 7.654 2.72 17.295-3.43 23.444-7.736 7.736-20.326 7.736-28.063 0l-53.249-53.249c-3.905-3.904-10.237-3.904-14.143 0l-26.874 26.874-18.788-18.788 26.874-26.874 86.179-86.18c7.738-7.737 20.327-7.736 28.063 0 6.15 6.15 7.561 15.79 3.43 23.443-2.125 3.937-1.377 8.805 1.831 11.922 3.208 3.119 8.098 3.726 11.969 1.488l40.441-23.349c4.59-2.65 9.937-3.354 15.058-1.982 5.12 1.372 9.399 4.655 12.049 9.246 4.102 7.104 3.451 15.848-1.657 22.274-2.388 3.005-2.846 7.111-1.178 10.568 1.668 3.456 5.168 5.653 9.006 5.653h6.232c10.941 0 19.843 8.902 19.843 19.844s-8.9 19.847-19.841 19.847z"/><path id="XMLID_1473_" d="m404.338 281.284h-61.644c-5.523 0-10 4.478-10 10s4.477 10 10 10h61.644c5.523 0 10-4.478 10-10s-4.477-10-10-10z"/><path id="XMLID_1474_" d="m219.725 178.315c5.523 0 10-4.478 10-10v-61.645c0-5.522-4.477-10-10-10s-10 4.478-10 10v61.645c0 5.523 4.477 10 10 10z"/><path id="XMLID_1475_" d="m369.583 151.426c2.559 0 5.119-.977 7.071-2.929l30.316-30.316c3.905-3.905 3.905-10.237 0-14.143-3.905-3.904-10.237-3.904-14.143 0l-30.316 30.316c-3.905 3.905-3.905 10.237 0 14.143 1.954 1.952 4.513 2.929 7.072 2.929z"/><path id="XMLID_1476_" d="m179.4 421.414c-2.64 0-5.21 1.061-7.08 2.92-1.86 1.87-2.92 4.44-2.92 7.08 0 2.631 1.06 5.21 2.92 7.07 1.87 1.86 4.45 2.93 7.08 2.93s5.2-1.069 7.07-2.93c1.86-1.86 2.93-4.439 2.93-7.07 0-2.64-1.07-5.22-2.93-7.08-1.86-1.859-4.44-2.92-7.07-2.92z"/></svg>