<svg width="100" height="100" viewBox="0 0 100 100"  xmlns="http://www.w3.org/2000/svg">
<path d="M429.446 230.069C429.157 229.581 428.856 229.099 428.518 228.635L270.702 7.572C267.316 2.819 261.835 0 255.998 0C250.155 0 244.68 2.819 241.295 7.572L83.478 228.635C83.153 229.099 82.84 229.575 82.556 230.069C50.137 285.985 50.655 353.859 83.947 411.642C119.607 473.546 185.535 512 255.998 512C326.461 512 392.389 473.54 428.054 411.636C461.34 353.858 461.864 285.979 429.446 230.069ZM396.738 393.596C367.512 444.338 313.583 475.859 255.998 475.859C198.419 475.859 144.49 444.344 115.258 393.602C88.242 346.703 87.574 294.021 113.397 248.917L255.998 49.17L398.599 248.922C424.416 294.027 423.753 346.708 396.738 393.596Z" fill="#FFFDF9"/>
<path d="M350.567 297.568C340.586 297.568 332.496 305.658 332.496 315.639C332.496 358.478 297.638 393.337 254.792 393.337C244.811 393.337 236.721 401.427 236.721 411.408C236.721 421.389 244.811 429.479 254.792 429.479C317.563 429.479 368.637 378.405 368.637 315.64C368.638 305.658 360.548 297.568 350.567 297.568Z" fill="#FFFDF9"/>
</svg>
