<?xml version="1.0" encoding="iso-8859-1"?>
<!-- Generator: Adobe Illustrator 19.0.0, SVG Export Plug-In . SVG Version: 6.00 Build 0)  -->
<svg version="1.1" id="Capa_1" xmlns="http://www.w3.org/2000/svg" xmlns:xlink="http://www.w3.org/1999/xlink" x="0px" y="0px"
	 viewBox="0 0 511.999 511.999" style="enable-background:new 0 0 511.999 511.999;" xml:space="preserve">
<g>
	<g>
		<path d="M80.809,315.34c-3.389-4.361-9.709-5.119-14.073-1.731c-0.004,0.003-0.078,0.061-0.083,0.064
			c-4.371,3.37-5.15,9.618-1.784,13.993c1.964,2.551,4.929,3.884,7.928,3.884c2.141,0,4.3-0.68,6.124-2.08l0.165-0.127
			C83.448,325.953,84.197,319.701,80.809,315.34z"/>
	</g>
</g>
<g>
	<g>
		<path d="M508.377,53.704l-34.102-28.241c-2.052-1.7-4.7-2.51-7.348-2.251c-2.651,0.258-5.09,1.564-6.775,3.627l-6.115,7.487
			c-3.556,4.354-7.47,8.393-11.679,12.094c-0.819,0.517-1.597,1.173-2.31,1.974c-3.004,2.488-6.148,4.804-9.414,6.936
			c-2.081,1.037-4.238,1.888-6.347,2.533c-6.109,1.868-12.579,1.247-18.219-1.751c-5.64-2.998-9.775-8.012-11.645-14.121
			c-2.763-9.033,2.337-18.63,11.37-21.394c6.169-1.887,12.73,1.596,14.618,7.769c0.575,1.881,0.384,3.873-0.54,5.61
			c-0.923,1.737-2.467,3.01-4.348,3.585c-5.281,1.616-8.253,7.207-6.637,12.489c1.615,5.281,7.207,8.254,12.489,6.637
			c6.989-2.138,12.729-6.87,16.159-13.325c3.43-6.454,4.142-13.858,2.004-20.848c-5.114-16.718-22.877-26.159-39.594-21.044
			c-19.579,5.989-30.634,26.791-24.645,46.37c3.373,11.028,10.722,19.762,19.994,25.128c-1.176,1.066-2.21,2.267-3.079,3.581
			c-14.584,2.539-27.828,9.858-37.788,21.001l-7.058,7.896c0.713-20.707-1.917-44.46-12.801-57.086
			c-2.075-2.407-5.167-3.686-8.337-3.442c-3.168,0.242-6.032,1.976-7.717,4.669c-5.359,8.573-11.516,15.439-16.762,20.46
			c-4.351-21.048-12.832-53.954-25.213-66.449c-3.194-3.222-8.156-3.892-12.088-1.63c-15.236,8.759-27.801,24.046-35.347,34.747
			C218.806,25.522,200.483,8.732,177.27,0.635c-3.9-1.36-8.232-0.185-10.909,2.96c-11.876,13.952-13.379,35.528-12.753,50.197
			c-15.707-3.301-41.588-5.251-68.904,7.401c-3.839,1.778-6.144,5.779-5.755,9.992c3.546,38.453,26.325,62.899,41.923,75.343
			c-7.604,5.22-16.179,13.147-21.698,24.552c-1.949,4.028-0.985,8.861,2.361,11.834c16.395,14.561,37.644,20.752,53.213,23.382
			c-5.737,4.453-13.924,9.472-25.34,13.96c-3.684,1.448-6.166,4.932-6.333,8.886c-0.167,3.954,2.015,7.635,5.563,9.387
			c18.327,9.05,34.716,13.44,48.217,15.349c-19.15,11.102-38.922,21.079-59.182,29.808c-4.617,1.989-9.226,4.151-13.705,6.427
			c-4.76,2.42-7.069,8.142-4.937,13.039c2.322,5.335,8.614,7.536,13.723,4.933c4.189-2.138,8.507-4.167,12.834-6.03
			c32.006-13.79,62.846-30.573,91.992-49.949c0.813-0.399,1.553-0.899,2.21-1.482c26.175-17.571,50.959-37.241,73.962-58.73
			c0.469-0.37,0.9-0.77,1.285-1.203c12.201-11.468,23.904-23.439,35.033-35.889l39.265-43.927
			c5.835-6.528,13.292-11.174,21.563-13.539l0.006-0.003c1.628,4.426,4.29,8.458,7.826,11.7c3.641,3.338,8.034,5.686,12.739,6.895
			c3.087,14.425,14.741,25.472,29.37,27.744l0.84,1.243c1.917,2.836,4.428,5.026,7.255,6.516c-0.471,2.129-1.095,4.226-1.868,6.277
			l-14.264,37.829c-21.955,58.229-54.03,111.353-95.335,157.896c-42.126,47.47-92.138,86.188-148.645,115.077l-1.061,0.542
			c-29.255,14.958-62.086,22.863-94.942,22.863c-35.771,0-66.33-25.973-71.952-61.482c-3.014-19.038,1.882-38.5,13.04-54.216
			c3.61-5.085,7.474-10.061,11.498-14.807c3.707-4.372,3.006-11.004-1.656-14.489c-4.276-3.195-10.375-2.261-13.821,1.815
			c-4.61,5.454-9.026,11.183-13.129,17.035C2.62,386.003-2.957,411.537,1.502,435.834c8.089,44.088,46.495,76.088,91.319,76.088
			c36.008,0,71.986-8.664,104.046-25.055l1.061-0.542c58.734-30.028,110.715-70.271,154.501-119.609
			c42.931-48.377,76.27-103.593,99.089-164.114l14.264-37.83c1.769-4.69,2.981-9.544,3.645-14.491
			c1.768-1.299,3.07-3.144,3.686-5.265l3.943-13.573c6.341-21.827,16.478-42.11,30.126-60.286l2.813-3.746
			C513.201,63.143,512.489,57.109,508.377,53.704z M324.174,131.395l-9.012,10.082c-8.492,9.5-17.324,18.716-26.468,27.627
			c-2.716-3.338-5.538-6.561-8.445-9.688l-5.31-52.149c-0.56-5.495-5.464-9.486-10.963-8.936c-5.494,0.56-9.495,5.467-8.936,10.962
			l3.023,29.691c-12.955-10.163-27.132-18.579-42.199-25.089l-7.918-28.16c-1.495-5.316-7.016-8.417-12.334-6.919
			c-5.316,1.495-8.415,7.017-6.919,12.334l4.071,14.478c-14.26-4.098-29.105-6.595-44.312-7.334
			c-5.516-0.257-10.206,3.986-10.474,9.502c-0.269,5.516,3.986,10.206,9.502,10.474c24.886,1.211,48.709,7.633,70.187,18.564
			l-34.415,11.086c-5.257,1.693-8.146,7.328-6.452,12.585c1.365,4.238,5.291,6.937,9.516,6.937c1.016,0,2.05-0.156,3.069-0.485
			l50.802-16.367c8.192,5.909,15.897,12.556,23.011,19.903c0.195,0.217,0.399,0.425,0.612,0.625
			c1.637,1.708,3.233,3.464,4.806,5.246l-41.964,6.759c-5.453,0.878-9.161,6.01-8.282,11.464c0.792,4.914,5.038,8.411,9.86,8.411
			c0.528,0,1.064-0.042,1.603-0.129l26.023-4.192c-15.06,12.541-30.778,24.31-47.053,35.243c-5.319,1.117-24.272,3.923-51.482-5.126
			c20.055-12.16,26.516-24.51,27.341-26.226c1.5-3.116,1.282-6.786-0.574-9.704c-1.856-2.917-5.108-4.69-8.546-4.631
			c-0.352,0.012-31.232,0.147-54.144-15.201c8.781-11.317,21.864-15.902,21.981-15.943c3.807-1.262,6.478-4.684,6.806-8.681
			c0.328-3.998-1.778-7.812-5.328-9.677c-1.609-0.846-37.549-20.194-45.018-62.158c32.198-11.669,61.013,0.031,61.29,0.146
			c3.375,1.436,7.267,0.908,10.138-1.375c2.872-2.283,4.263-5.955,3.625-9.567c-1.351-7.647-3.122-29.549,3.055-43.294
			c25.906,12.086,43.899,36.656,44.086,36.915c1.995,2.773,5.269,4.334,8.679,4.142c3.411-0.191,6.49-2.113,8.163-5.091
			c0.135-0.24,11.95-21.064,28.052-33.971c7.935,15.255,15.094,46.405,18.19,65.56c0.536,3.317,2.702,6.144,5.766,7.523
			c3.063,1.379,6.615,1.13,9.454-0.667c0.638-0.404,12.499-8.008,24.689-22.42C328.978,91.606,327.67,117.851,324.174,131.395z
			 M457.848,125.862l-1.476,5.08l-1.647-2.436c-1.86-2.751-4.964-4.399-8.284-4.399c-8.534,0-15.459-6.681-15.764-15.21
			l-0.087-2.454c-0.098-2.739-1.315-5.319-3.369-7.135c-1.835-1.623-4.194-2.509-6.625-2.509c-0.289,0-0.579,0.013-0.869,0.038
			c-2.768,0.243-5.429-0.661-7.481-2.542c-1.896-1.737-3.004-4.062-3.162-6.601l11.396-4.599
			c18.95-7.648,35.813-20.024,48.792-35.807l19.046,15.773C474.656,82.159,464.414,103.263,457.848,125.862z"/>
	</g>
</g>
<g>
	<g>
		<path d="M405.935,160.755c-4.318-3.442-10.61-2.734-14.054,1.584L343.87,222.55c-22.1,27.714-46.567,53.892-72.723,77.807
			c-4.076,3.727-4.359,10.052-0.633,14.129c1.973,2.158,4.673,3.252,7.383,3.252c2.409,0.001,4.826-0.865,6.744-2.619
			c26.926-24.619,52.114-51.567,74.865-80.099l48.012-60.212C410.962,170.49,410.253,164.198,405.935,160.755z"/>
	</g>
</g>
<g>
	<g>
		<path d="M246.761,334.613c-3.422-4.334-9.71-5.076-14.046-1.652l-0.327,0.257c-4.35,3.403-5.118,9.688-1.715,14.039
			c1.972,2.522,4.913,3.839,7.883,3.839c2.155,0,4.326-0.693,6.155-2.124l0.397-0.313
			C249.444,345.236,250.184,338.948,246.761,334.613z"/>
	</g>
</g>
<g>
	<g>
		<path d="M208.502,363.492c-3.104-4.567-9.322-5.755-13.893-2.649c-41.183,27.988-85.541,51.47-131.841,69.793l-5.847,2.314
			c-5.135,2.033-7.65,7.843-5.618,12.98c1.555,3.926,5.32,6.321,9.302,6.321c1.224,0,2.469-0.226,3.677-0.704l5.846-2.314
			c47.664-18.862,93.328-43.035,135.724-71.848C210.421,374.28,211.607,368.06,208.502,363.492z"/>
	</g>
</g>
<g>
</g>
<g>
</g>
<g>
</g>
<g>
</g>
<g>
</g>
<g>
</g>
<g>
</g>
<g>
</g>
<g>
</g>
<g>
</g>
<g>
</g>
<g>
</g>
<g>
</g>
<g>
</g>
<g>
</g>
</svg>
