<?xml version="1.0" encoding="iso-8859-1"?>
<!-- Generator: Adobe Illustrator 19.0.0, SVG Export Plug-In . SVG Version: 6.00 Build 0)  -->
<svg version="1.1" id="Capa_1" xmlns="http://www.w3.org/2000/svg" xmlns:xlink="http://www.w3.org/1999/xlink" x="0px" y="0px"
	 viewBox="0 0 512 512" style="enable-background:new 0 0 512 512;" xml:space="preserve">
<g>
	<g>
		<path d="M487.976,377.84c-8.331-60.479-59.718-95.05-118.282-113.973c-1.53-0.564-19.925-7.31-44.754-19.412
			c-3.745-1.832-8.266-0.272-10.088,3.474c-1.832,3.755-0.272,8.266,3.474,10.099c21.988,10.728,44.404,19.618,46.606,20.167
			c65.333,21.083,101.7,55.305,108.083,101.7c0.644,4.662,0.967,9.374,0.967,14.025c0,56.473-46.807,102.666-104.338,102.979h-1.118
			c-6.273,0-12.787-0.282-19.371-0.856c-4.168-0.362-7.813,2.718-8.175,6.867c-0.362,4.158,2.718,7.823,6.867,8.175
			c7.018,0.614,13.975,0.916,20.68,0.916h1.198c65.816-0.352,119.36-53.332,119.36-118.081
			C489.083,388.583,488.711,383.177,487.976,377.84z"/>
	</g>
</g>
<g>
	<g>
		<path d="M320.208,491.763c-1.842-0.393-3.111-0.695-3.695-0.846C208.638,449.845,132.076,342.591,86.724,236.401l8.286-54.449
			c10.719,10.783,26.851,26.797,38.169,36.85c10.119,8.961,13.643,10.914,17.962,9.927c2.729-0.624,4.873-2.577,5.759-5.225
			c2.064-6.193-6.986-47.658-12.515-73.519c14.972,6.142,38.763,15.928,50.845,20.892c28.252,31.594,66.108,56.443,95.911,72.995
			c3.645,2.024,8.246,0.715,10.27-2.93s0.705-8.246-2.94-10.27c-26.399-14.669-59.343-36.024-85.309-62.695l-2.826-17.926
			c-3.222-19.669-12.931-57.625-55.932-79.968c-25.264-13.135-61.22-12.038-88.994,6.201c-5.717-13.44-15.155-42.352-2.74-65.115
			c1.998-3.661,0.648-8.248-3.013-10.245c-3.663-2-8.248-0.648-10.245,3.013c-16.908,30.996-2.678,68.25,3.688,81.907
			c-3.315,3.016-6.454,6.263-9.388,9.751c-16.321,19.371-24.134,53.644-19.452,85.268c6.046,40.781,30.253,61.829,49.949,64.8
			c27.976,64.517,67.029,128.645,116.198,178.37c36.981,37.404,77.747,64.719,121.162,81.161c0.252,0.101,0.513,0.181,0.775,0.252
			c0.07,0.02,1.752,0.453,4.692,1.087c0.534,0.111,1.067,0.171,1.591,0.171c3.484,0,6.615-2.426,7.37-5.971
			C326.873,496.656,324.285,492.639,320.208,491.763z M82.344,164.785c-0.923,6.07-9.073,59.665-9.867,64.89
			c-19.723-7.008-30.168-30.055-33.276-51.016c-4.088-27.607,2.366-57.077,16.069-73.337
			c45.183-53.756,128.327-31.034,141.057,49.677c-11.874-4.895-9.928-4.07-59.494-24.446c-5.628-2.313-11.547,2.658-10.239,8.608
			c5.215,23.721,10.521,49.415,13.431,65.494c-11.468-10.491-29.017-27.789-44.804-43.998
			C90.89,156.194,83.286,158.635,82.344,164.785z"/>
	</g>
</g>
<g>
</g>
<g>
</g>
<g>
</g>
<g>
</g>
<g>
</g>
<g>
</g>
<g>
</g>
<g>
</g>
<g>
</g>
<g>
</g>
<g>
</g>
<g>
</g>
<g>
</g>
<g>
</g>
<g>
</g>
</svg>
