<?xml version="1.0" encoding="iso-8859-1"?>
<!-- Generator: Adobe Illustrator 19.0.0, SVG Export Plug-In . SVG Version: 6.00 Build 0)  -->
<svg version="1.1" id="Capa_1" xmlns="http://www.w3.org/2000/svg" xmlns:xlink="http://www.w3.org/1999/xlink" x="0px" y="0px"
	 viewBox="0 0 512.105 512.105" style="enable-background:new 0 0 512.105 512.105;" xml:space="preserve">
<g>
	<g>
		<g>
			<path d="M325.951,431.583c-4.087-2.347-9.303-0.937-11.65,3.15c-10.025,17.45-29.104,25.975-58.275,26.067
				c-29.221-0.092-48.3-8.617-58.325-26.067c-8.812-18.189-12.109-38.56-9.483-58.6c0.364-4.699-3.151-8.803-7.85-9.167
				c-4.699-0.364-8.803,3.151-9.167,7.85c-2.922,23.46,1.148,47.261,11.7,68.417c13.325,23.192,37.225,34.525,73.125,34.633
				c35.85-0.108,59.75-11.442,73.075-34.633C331.448,439.146,330.037,433.931,325.951,431.583z"/>
			<path d="M307.455,268.842c-1.53-2.636-4.351-4.256-7.399-4.249c-3.048,0.007-5.861,1.64-7.379,4.283
				c-1.518,2.643-1.51,5.896,0.02,8.532c15.827,27.953,26.108,58.699,30.279,90.55c0.516,4.281,4.146,7.504,8.458,7.508
				c0.347,0.001,0.693-0.018,1.037-0.058c4.679-0.568,8.012-4.821,7.446-9.5C335.543,331.742,324.514,298.765,307.455,268.842z"/>
			<path d="M187.301,332.417c2.161,0.671,4.5,0.455,6.502-0.6s3.502-2.863,4.169-5.025c5.263-17.2,12.419-33.763,21.338-49.383
				c9.661-16.815,18.003-34.353,24.95-52.458c1.113-2.846,0.62-6.069-1.294-8.452c-1.913-2.383-4.954-3.561-7.973-3.089
				c-3.019,0.472-5.555,2.521-6.65,5.374c-6.624,17.278-14.581,34.014-23.8,50.058c-9.556,16.733-17.227,34.475-22.871,52.9
				c-0.671,2.162-0.455,4.502,0.601,6.505C183.329,330.249,185.137,331.749,187.301,332.417z"/>
			<path d="M405.45,205.808c-60.75-32.45-95.558-90.558-98.017-163.608c-0.229-9.231-7.775-16.596-17.008-16.6h-8.552
				c-0.098-3.196-0.165-6.157-0.207-8.858C281.469,7.454,273.895,0.022,264.605,0h-17.208c-9.287,0.028-16.858,7.456-17.062,16.742
				c-0.042,2.701-0.108,5.662-0.207,8.858h-8.452c-9.233,0.004-16.78,7.369-17.008,16.6c-2.458,73.042-37.267,131.15-98.008,163.608
				C41.613,240.567-15.704,329.55,5.121,412.7c13.087,52.258,54.763,82.233,114.346,82.233c19.04,0.168,37.984-2.703,56.119-8.505
				c22.972,17.715,51.451,26.769,80.435,25.572c28.983,1.195,57.46-7.868,80.422-25.594c18.156,5.818,37.126,8.697,56.191,8.528
				c59.583,0,101.258-29.975,114.35-82.233C527.809,329.55,470.492,240.567,405.45,205.808z M119.467,477.867
				c-51.867,0-86.596-24.617-97.792-69.308c-14.658-58.525,16.742-146.933,93.025-187.7
				c65.379-34.933,104.388-99.85,106.975-178.192h7.67c-0.043,0.752-0.079,1.466-0.125,2.232c-0.103,1.684-0.217,3.414-0.339,5.169
				c-0.134,1.962-0.289,3.99-0.448,6.033c-0.157,2.015-0.315,4.032-0.498,6.123c-0.167,1.915-0.365,3.908-0.554,5.882
				c-0.221,2.293-0.427,4.553-0.681,6.921c-0.165,1.549-0.372,3.178-0.552,4.757c-0.573,5.018-1.227,10.174-1.961,15.467
				c-0.266,1.918-0.518,3.814-0.807,5.764c-0.398,2.685-0.846,5.428-1.291,8.167c-0.339,2.089-0.68,4.179-1.046,6.294
				c-0.474,2.735-0.974,5.492-1.501,8.273c-0.419,2.229-0.862,4.472-1.314,6.723c-0.552,2.748-1.112,5.5-1.714,8.276
				c-0.524,2.416-1.096,4.853-1.66,7.286c-0.617,2.665-1.215,5.321-1.881,8.003c-0.915,3.677-1.912,7.371-2.924,11.067
				c-0.835,3.05-1.718,6.099-2.622,9.155c-0.995,3.36-1.993,6.72-3.076,10.078c-0.693,2.15-1.447,4.292-2.177,6.437
				c-1.065,3.129-2.149,6.255-3.295,9.368c-0.783,2.129-1.601,4.247-2.423,6.365c-1.239,3.187-2.524,6.358-3.855,9.513
				c-0.83,1.973-1.662,3.944-2.53,5.902c-1.541,3.477-3.167,6.915-4.827,10.336c-0.767,1.581-1.499,3.178-2.292,4.744
				c-2.52,4.978-5.144,9.9-7.937,14.715c-2.328,4.012-4.571,8.171-6.745,12.428c-1.277,2.49-2.459,5.047-3.67,7.589
				c-0.776,1.636-1.576,3.24-2.326,4.904c-1.57,3.462-3.04,6.978-4.482,10.516c-0.3,0.739-0.612,1.464-0.907,2.208
				c-1.576,3.956-3.049,7.948-4.457,11.976c-0.141,0.403-0.284,0.803-0.423,1.207c-1.43,4.147-2.764,8.318-4.003,12.515
				c-0.133,0.448-0.263,0.896-0.394,1.345c-1.173,4.035-2.259,8.082-3.256,12.139c-0.234,0.948-0.445,1.896-0.669,2.846
				c-0.82,3.514-1.601,7.023-2.28,10.541c-0.412,2.104-0.753,4.205-1.116,6.311c-0.398,2.361-0.82,4.719-1.152,7.073
				c-0.636,4.403-1.138,8.793-1.536,13.172l-0.028,0.266c-4.127,31.38,1.357,63.273,15.728,91.472
				c0.431,0.75,0.978,1.382,1.424,2.116c0.121,0.204,0.272,0.384,0.395,0.586c2.058,3.413,4.32,6.698,6.773,9.839l0.041,0.059
				C148.047,476.287,133.779,477.981,119.467,477.867z M348.569,442.344c-1.381,3.211-2.94,6.343-4.668,9.381
				c-16.404,28.566-45.988,43.1-87.879,43.208c-31.282-0.081-55.671-8.21-72.864-24.183l-0.028-0.034
				c-8.799-8.329-15.704-18.453-20.246-29.685l-0.044-0.121c-1.52-3.684-2.837-7.448-3.945-11.276
				c-0.232-0.794-0.403-1.621-0.619-2.424c-0.845-3.128-1.603-6.31-2.22-9.576c-0.237-1.263-0.417-2.555-0.621-3.835
				c-0.45-2.809-0.839-5.652-1.132-8.544c-0.171-1.722-0.304-3.46-0.42-5.205c-0.165-2.403-0.278-4.828-0.339-7.278
				c-0.054-2.261-0.089-4.528-0.059-6.818c0.019-1.783,0.091-3.586,0.16-5.388c0.12-2.948,0.25-5.899,0.499-8.879
				c0.061-0.756,0.156-1.521,0.226-2.279c2.609-25.33,8.778-50.166,18.326-73.773c0.306-0.761,0.615-1.52,0.928-2.278
				c1.286-3.141,2.62-6.239,4.002-9.296c0.816-1.794,1.667-3.562,2.517-5.332c1.041-2.179,2.074-4.368,3.158-6.492
				c2.082-4.056,4.226-8.063,6.483-11.953c2.97-5.121,5.765-10.348,8.439-15.639c0.863-1.707,1.643-3.448,2.476-5.169
				c1.739-3.594,3.461-7.192,5.073-10.842c0.957-2.167,1.845-4.353,2.76-6.535c1.361-3.25,2.706-6.497,3.974-9.775
				c0.925-2.391,1.802-4.786,2.68-7.188c1.131-3.098,2.233-6.193,3.286-9.303c0.855-2.523,1.683-5.039,2.489-7.566
				c0.957-3.004,1.878-6.006,2.762-9.005c0.767-2.587,1.528-5.166,2.246-7.749c0.819-2.947,1.583-5.877,2.342-8.811
				c0.671-2.598,1.357-5.192,1.982-7.776c0.702-2.903,1.339-5.773,1.985-8.654c0.577-2.569,1.184-5.146,1.719-7.692
				c0.632-3.013,1.185-5.97,1.76-8.945c0.89-4.606,1.715-9.154,2.477-13.643c0.458-2.706,0.942-5.436,1.356-8.094
				c0.411-2.643,0.76-5.197,1.131-7.788c0.347-2.43,0.709-4.871,1.022-7.249c0.329-2.502,0.616-4.918,0.909-7.359
				c0.286-2.38,0.572-4.749,0.826-7.065c0.252-2.299,0.478-4.527,0.699-6.76c0.234-2.357,0.454-4.673,0.659-6.947
				c0.182-2.052,0.354-4.055,0.513-6.039c0.187-2.337,0.355-4.593,0.511-6.826c0.125-1.778,0.249-3.54,0.355-5.25
				c0.147-2.367,0.269-4.604,0.384-6.828c0.071-1.385,0.154-2.8,0.214-4.129c0.017-0.367,0.043-0.785,0.06-1.148l-0.012-0.073
				c0.284-6.51,0.459-12.422,0.536-17.369l17.204-0.058c0.58,37.052,5.634,121.429,36.117,198.324l0.14,0.344
				c6.017,15.373,13.156,30.282,21.359,44.608c23.926,40.998,36.432,87.657,36.217,135.125c-0.023,0.569-0.05,1.137-0.079,1.704
				c-0.166,3.4-0.437,6.757-0.812,10.07c-0.123,1.078-0.279,2.138-0.424,3.204c-0.393,2.93-0.839,5.833-1.404,8.677
				c-0.264,1.319-0.6,2.594-0.902,3.891c-0.604,2.611-1.215,5.219-1.977,7.74c-0.394,1.298-0.892,2.526-1.328,3.796
				c-0.845,2.469-1.663,4.955-2.674,7.319C348.755,441.994,348.649,442.16,348.569,442.344z M490.425,408.558
				c-11.191,44.692-45.925,69.308-97.792,69.308c-14.311,0.114-28.58-1.58-42.467-5.042c0.127-0.16,0.223-0.345,0.348-0.506
				c0.71-0.9,1.289-1.933,1.971-2.862c1.824-2.526,3.636-5.06,5.228-7.765c0.306-0.511,0.689-0.946,0.986-1.466
				c12.343-23.476,18.084-49.862,16.61-76.345c-0.021-1.157-0.125-2.335-0.164-3.497c-0.126-3.245-0.251-6.488-0.519-9.762
				c-0.313-4.049-0.78-8.126-1.303-12.213c-0.041-0.309-0.066-0.616-0.108-0.926c-5.114-37.256-17.385-73.171-36.137-105.766
				c-4.813-8.296-9.185-16.876-13.202-25.621c-0.241-0.525-0.495-1.043-0.733-1.569c-1.909-4.214-3.731-8.464-5.466-12.75
				c-0.161-0.397-0.323-0.795-0.483-1.193c-20.139-53.822-31.764-110.455-34.458-167.858l7.637,0.042
				c2.638,78.25,41.646,143.167,107.029,178.092C473.684,261.625,505.084,350.033,490.425,408.558z"/>
			<path d="M169.75,214.059c-2.956-3.662-8.318-4.24-11.987-1.293c-10.92,8.798-22.644,16.549-35.017,23.15
				c-15.203,8.162-28.989,18.726-40.825,31.283c-2.344,2.475-2.989,6.108-1.642,9.239c1.347,3.131,4.429,5.16,7.838,5.161
				c2.345,0.003,4.587-0.962,6.196-2.667c10.577-11.223,22.895-20.667,36.479-27.967c13.317-7.108,25.938-15.45,37.696-24.917
				C172.142,223.084,172.707,217.721,169.75,214.059z"/>
			<path d="M119.467,443.733c-25.721,0-44.237-7.442-55.042-22.108c-1.807-2.455-4.787-3.759-7.816-3.421
				c-3.029,0.338-5.649,2.266-6.871,5.058c-1.222,2.792-0.862,6.025,0.945,8.479C64.88,451.025,88.021,460.8,119.467,460.8
				l2.217-0.017l-0.2-17.067L119.467,443.733z"/>
			<path d="M457.317,400.267c-7.333,29.25-28.492,43.467-64.683,43.467l-2.042-0.017h-0.104c-4.713-0.02-8.549,3.785-8.569,8.498
				c-0.02,4.713,3.785,8.549,8.498,8.569l2.217,0.017c55.467,0,74.792-30.658,81.233-56.383c0.748-2.959-0.141-6.092-2.332-8.217
				c-2.191-2.125-5.35-2.917-8.285-2.077C460.316,394.962,458.053,397.305,457.317,400.267z"/>
			<path d="M389.364,235.917c-2.689-1.446-5.947-1.345-8.541,0.266c-2.594,1.611-4.13,4.485-4.027,7.537
				c0.103,3.052,1.829,5.816,4.526,7.248h-0.001c27.477,15.109,49.594,38.365,63.304,66.567c1.352,2.733,4.059,4.538,7.102,4.734
				s5.959-1.246,7.65-3.783c1.691-2.537,1.9-5.784,0.549-8.517C444.63,278.58,419.977,252.708,389.364,235.917z"/>
		</g>
	</g>
</g>
<g>
</g>
<g>
</g>
<g>
</g>
<g>
</g>
<g>
</g>
<g>
</g>
<g>
</g>
<g>
</g>
<g>
</g>
<g>
</g>
<g>
</g>
<g>
</g>
<g>
</g>
<g>
</g>
<g>
</g>
</svg>
