<?xml version="1.0" encoding="iso-8859-1"?>
<!-- Generator: Adobe Illustrator 19.0.0, SVG Export Plug-In . SVG Version: 6.00 Build 0)  -->
<svg version="1.1" id="Capa_1" xmlns="http://www.w3.org/2000/svg" xmlns:xlink="http://www.w3.org/1999/xlink" x="0px" y="0px"
	 viewBox="0 0 511.999 511.999" style="enable-background:new 0 0 511.999 511.999;" xml:space="preserve">
<g>
	<g>
		<path d="M127.951,354.228c-4.038-3.766-10.365-3.547-14.132,0.491c-0.242,0.26-24.498,26.26-48.791,51.887
			c-3.798,4.008-3.629,10.336,0.378,14.136c1.935,1.833,4.407,2.742,6.877,2.742c2.649,0,5.292-1.046,7.259-3.12
			c24.349-25.687,48.658-51.744,48.9-52.004C132.209,364.322,131.989,357.995,127.951,354.228z"/>
	</g>
</g>
<g>
	<g>
		<path d="M55.517,431.252c-3.873-3.908-10.198-3.934-14.126-0.079c-0.022,0.021-0.084,0.083-0.106,0.104
			c-3.892,3.892-3.886,10.178-0.013,14.088c1.95,1.968,4.52,2.952,7.094,2.952c2.54,0,5.081-0.958,7.032-2.873
			c0.022-0.021,0.084-0.083,0.106-0.104C59.396,441.447,59.39,435.161,55.517,431.252z"/>
	</g>
</g>
<g>
	<g>
		<path d="M509.032,111.031c-2.938-2.915-7.37-3.715-11.145-2.017l-155.157,69.87L504.653,17.071
			c2.861-2.859,3.717-7.158,2.172-10.894c-1.545-3.736-5.188-6.174-9.233-6.177c-0.037,0-0.067,0-0.104,0
			c-39.338,0-76.567,13.85-106.099,39.239l7.304-11.524c2.316-3.654,2.02-8.385-0.736-11.72c-2.757-3.336-7.347-4.521-11.37-2.937
			c-47.876,18.844-87.701,51.8-115.171,95.305l-92.137,145.925c-11.879,11.084-132.21,123.372-159.54,148.987
			C6.403,415.774-0.589,432.318,0.049,449.859c0.667,18.343,9.474,35.681,24.16,47.567c11.729,9.492,26.105,14.573,40.627,14.573
			c3.471,0,6.951-0.29,10.403-0.881c17.346-2.964,32.22-13.234,41.881-28.921c18.97-30.801,98.23-163.753,111.18-185.482
			l76.292-28.87c5.165-1.954,7.768-7.726,5.812-12.89c-1.954-5.164-7.723-7.766-12.89-5.812l-40.392,15.285l45.657-45.626
			l176.618-79.534c-22.038,34.685-55.089,61.895-93.781,76.536l-22.761,8.613c-5.165,1.955-7.768,7.726-5.812,12.89
			c1.514,3.999,5.315,6.463,9.353,6.463c1.176,0,2.372-0.209,3.536-0.65l22.761-8.613c26.355-9.972,50.086-24.862,70.531-44.255
			c20.445-19.392,36.568-42.303,47.919-68.095C512.81,118.369,511.97,113.944,509.032,111.031z M100.093,471.712
			c-8.462,13.74-20.018,18.295-28.222,19.696c-12.236,2.09-25.019-1.383-35.083-9.526c-10.043-8.127-16.308-20.37-16.758-32.749
			c-0.3-8.261,1.778-20.391,13.382-31.267c24.94-23.377,127.433-119.025,154.097-143.908l20.964,16.965
			C189.823,322.212,117.975,442.679,100.093,471.712z M219.062,273.766l-17.589-14.235l-1.228-0.994l88.08-139.497
			c19.008-30.103,44.468-54.697,74.684-72.377L219.062,273.766z M290.52,202.786c-0.503,0.414-0.959,0.87-1.365,1.364l-6.253,6.248
			l61.761-97.441c0.714-0.419,1.391-0.922,2.004-1.534l49.838-49.687c20.638-20.576,46.452-34.083,74.497-39.307L290.52,202.786z"/>
	</g>
</g>
<g>
	<g>
		<path d="M342.767,238.315c-1.859-1.86-4.438-2.93-7.068-2.93c-2.641,0-5.209,1.07-7.069,2.93c-1.86,1.86-2.93,4.439-2.93,7.069
			c0,2.64,1.069,5.209,2.93,7.069c1.86,1.87,4.438,2.93,7.069,2.93c2.63,0,5.209-1.06,7.068-2.93c1.86-1.86,2.931-4.429,2.931-7.069
			C345.698,242.754,344.628,240.174,342.767,238.315z"/>
	</g>
</g>
<g>
</g>
<g>
</g>
<g>
</g>
<g>
</g>
<g>
</g>
<g>
</g>
<g>
</g>
<g>
</g>
<g>
</g>
<g>
</g>
<g>
</g>
<g>
</g>
<g>
</g>
<g>
</g>
<g>
</g>
</svg>
