<?xml version="1.0" encoding="iso-8859-1"?>
<!-- Generator: Adobe Illustrator 19.0.0, SVG Export Plug-In . SVG Version: 6.00 Build 0)  -->
<svg version="1.1" id="Layer_1" xmlns="http://www.w3.org/2000/svg" xmlns:xlink="http://www.w3.org/1999/xlink" x="0px" y="0px"
	 viewBox="0 0 511.998 511.998" style="enable-background:new 0 0 511.998 511.998;" xml:space="preserve">
<g>
	<g>
		<path d="M450.412,146.363c-3.654-2.088-8.31-0.819-10.398,2.835c-2.745,4.802-5.571,9.634-8.401,14.36
			c-2.162,3.611-1.077,8.447,2.624,10.454c4.636,2.515,9.025-0.239,10.454-2.624c2.883-4.815,5.762-9.736,8.558-14.628
			C455.335,153.107,454.066,148.452,450.412,146.363z"/>
	</g>
</g>
<g>
	<g>
		<path d="M502.794,5.455c-5.608-4.468-12.996-6.167-20.584-5.093c-0.066,0.005-0.131,0-0.197,0.012
			C425.41,10.14,379.197,28.253,378.831,28.469c-31.526-6.276-65.241,3.091-89.054,26.903c-8.305,8.305-14.925,17.901-19.726,28.275
			c-21.328,13.781-41.923,29.082-61.239,45.479c-18.313,4.002-35.232,13.181-48.626,26.576
			c-14.274,14.274-23.341,32.008-27.01,50.678c-0.017,0.02-0.037,0.039-0.054,0.06c-14.714,18.07-28.648,37.363-41.412,57.34
			c-0.096,0.149-0.177,0.304-0.26,0.457c-11.738,4.879-22.588,12.051-31.865,21.329C34.96,310.192,25.78,345.55,33.434,378.051
			c-12.525,31.392-23.322,64.823-32.117,99.415c-2.544,8.492-1.318,16.946,2.944,23.84c8.87,14.344,26.967,10.332,29.931,9.483
			c6.043-1.729,149.582-43.964,288.527-182.885c0.019-0.019,0.039-0.038,0.054-0.053c39.969-39.969,75.893-84.427,106.773-132.14
			c2.286-3.534,1.276-8.252-2.257-10.539c-3.533-2.285-8.251-1.276-10.539,2.257c-30.291,46.802-65.526,90.411-104.726,129.616
			c-0.019,0.019-0.039,0.038-0.054,0.053C175.774,453.278,35.884,494.448,29.997,496.133c-5.609,1.605-10.388,0.154-13.09-3.338
			c-4.539-5.866,0.198-14.204,1.221-15.916c25.543-42.761,54.643-85.141,86.491-125.962c2.589-3.319,1.998-8.107-1.321-10.695
			c-3.319-2.589-8.107-1.998-10.695,1.321C79.523,358.306,66.91,375.334,54.8,392.54c-15.835-31.602-9.935-70.701,15.561-96.198
			c19.274-19.274,46.567-27.833,73.363-23.118c0.755,1.354,1.54,2.697,2.365,4.025c-10.105,11.423-19.982,22.935-29.558,34.513
			c-2.682,3.242-2.208,8.023,1.015,10.73c4.051,3.402,9.222,0.807,10.73-1.015c27.504-33.251,57.359-66.019,88.734-97.395
			C351.226,89.865,472.221,20.779,477.306,17.904c2.135-1.206,9.323-5.732,15.99-0.528c3.618,2.824,4.463,8.488,2.223,14.339
			c-12.118,31.659-26.09,62.609-41.531,91.99c-1.958,3.726-0.525,8.333,3.201,10.291c3.725,1.956,8.333,0.524,10.291-3.201
			c15.719-29.912,29.941-61.414,42.273-93.631C514.416,24.983,511.683,12.537,502.794,5.455z M32.376,425.497
			c2.881-8.687,5.89-17.253,9.026-25.688c1.147,2.261,2.382,4.489,3.718,6.678C40.801,412.803,36.553,419.141,32.376,425.497z
			 M113.821,257.919c5.731-8.446,11.673-16.725,17.779-24.814c0.63,8.066,2.273,16.084,4.914,23.869
			C128.876,256.406,121.266,256.742,113.821,257.919z M262.599,106.985c-1.524,8.172-2.014,16.565-1.422,24.988
			c-8.272-2.769-16.906-4.445-25.673-4.951C244.333,120.091,253.373,113.39,262.599,106.985z M206.232,213.304
			c-16.975,16.975-33.492,34.364-49.459,52.008c-17.607-32.081-12.204-72.437,14.19-98.831
			c26.779-26.78,67.345-31.966,99.573-13.783C249.731,171.186,228.152,191.383,206.232,213.304z M282.543,142.138
			c-1.698-1.076-3.425-2.098-5.181-3.066c-4.534-26.634,4.081-53.811,23.191-72.923c25.903-25.903,65.658-31.569,97.496-14.875
			C366.423,73.608,326.474,103.916,282.543,142.138z M411.855,41.657c-3.241-2.042-6.566-3.88-9.962-5.503
			c12.375-4.279,23.751-7.718,33.833-10.465C428.683,30.272,420.691,35.591,411.855,41.657z"/>
	</g>
</g>
<g>
</g>
<g>
</g>
<g>
</g>
<g>
</g>
<g>
</g>
<g>
</g>
<g>
</g>
<g>
</g>
<g>
</g>
<g>
</g>
<g>
</g>
<g>
</g>
<g>
</g>
<g>
</g>
<g>
</g>
</svg>
