<?xml version="1.0" encoding="iso-8859-1"?>
<!-- Generator: Adobe Illustrator 19.0.0, SVG Export Plug-In . SVG Version: 6.00 Build 0)  -->
<svg version="1.1" id="Capa_1" xmlns="http://www.w3.org/2000/svg" xmlns:xlink="http://www.w3.org/1999/xlink" x="0px" y="0px"
	 viewBox="0 0 511.999 511.999" style="enable-background:new 0 0 511.999 511.999;" xml:space="preserve">
<g>
	<g>
		<path d="M399.84,430.976c-2.841-3.025-7.597-3.178-10.623-0.338c-7.762,7.282-16.127,13.544-24.864,18.61
			c-11.252,6.526-20.486,16.657-26.702,29.3c-12.061,24.529-49.065,24.672-61.198,0c-6.217-12.643-15.451-22.776-26.703-29.301
			c-66.615-38.627-99.126-137.582-72.493-225.734c1.199-3.973-1.048-8.167-5.021-9.367c-3.973-1.196-8.166,1.047-9.367,5.021
			c-17.025,56.355-12.15,120.928,14.763,172.897c15.851,30.61,38.182,54.879,64.578,70.185c8.676,5.032,15.853,12.961,20.756,22.932
			c17.561,35.71,70.56,35.808,88.171,0c11.632-23.661,22.975-19.761,48.364-43.583C402.528,438.758,402.68,434.002,399.84,430.976z"
			/>
	</g>
</g>
<g>
	<g>
		<path d="M371.595,112.293c-8.565-4.939-15.678-12.742-20.57-22.567c-6.973-14-20.805-23.714-36.459-26.1V7.494
			c0-7.822-10.592-10.429-14.217-3.407c-0.631,1.242-13.706,26.04-46.058,38.434c-21.219-6.902-20.285-6.673-21.141-6.833
			c-20.194-3.798-40.346-4.443-59.955-1.012c-4.088,0.741-6.803,4.649-6.062,8.727c0.731,4.088,4.629,6.803,8.727,6.072
			c25.933-4.715,48.431,0.327,54.284,0.972l16.672,5.44c-28.762,66.005-96.634,107.052-173.253,99.19
			c26.608-32.994,29.013-75.414,75.555-97.197c3.757-1.753,5.38-6.232,3.627-9.989c-1.763-3.757-6.232-5.38-9.989-3.617
			c-57.131,26.718-55.729,78.911-89.502,110.713c-4.455,4.194-2.282,11.688,3.737,12.845
			c85.537,16.34,173.769-28.23,206.416-112.787c16.241-6.903,28.044-16.522,36.129-25.018v33.597
			c-15.653,2.387-29.486,12.1-36.459,26.101c-4.892,9.824-12.005,17.628-20.57,22.566c-28.801,16.607-52.503,43.512-68.544,77.805
			c-1.758,3.759-0.136,8.232,3.623,9.99c3.762,1.759,8.233,0.136,9.991-3.623c14.727-31.49,36.318-56.094,62.436-71.155
			c11.134-6.42,20.304-16.409,26.517-28.886c9.53-19.132,30.868-18.446,30.521-18.346c0.009,0,0.017-0.001,0.026-0.001
			c12.979,0.01,24.946,7.209,30.494,18.347c6.214,12.478,15.383,22.466,26.518,28.886c86.548,49.907,110.072,194.555,44.121,283.871
			c-3.692,4.999-0.037,11.979,6.039,11.979c2.303,0,4.577-1.056,6.051-3.051C491.13,322.188,466.511,167.021,371.595,112.293z"/>
	</g>
</g>
<g>
</g>
<g>
</g>
<g>
</g>
<g>
</g>
<g>
</g>
<g>
</g>
<g>
</g>
<g>
</g>
<g>
</g>
<g>
</g>
<g>
</g>
<g>
</g>
<g>
</g>
<g>
</g>
<g>
</g>
</svg>
