<?xml version="1.0" encoding="iso-8859-1"?>
<!-- Generator: Adobe Illustrator 19.0.0, SVG Export Plug-In . SVG Version: 6.00 Build 0)  -->
<svg version="1.1" id="Capa_1" xmlns="http://www.w3.org/2000/svg" xmlns:xlink="http://www.w3.org/1999/xlink" x="0px" y="0px"
	 viewBox="0 0 512.002 512.002" style="enable-background:new 0 0 512.002 512.002;" xml:space="preserve">
<g>
	<g>
		<path d="M466.943,201.138c-13.746-22.676-44.671-49.154-113.939-46.509c-1.756,0.067-3.492,0.136-5.208,0.208
			c-0.85-30.546-5.763-60.057-13.454-80.165c-1.479-3.868-5.814-5.808-9.684-4.326c-3.869,1.48-5.806,5.816-4.326,9.685
			c7.034,18.392,11.685,46.817,12.475,75.541c-44.999,2.57-74.599,8.055-95.611,23.842c-22.878,17.188-34.683,45.278-54.242,91.817
			l-3.568,8.484c-1.608,3.817,0.182,8.215,3.999,9.824c3.815,1.606,8.216-0.182,9.823-4l3.574-8.497
			c38.396-91.358,43.329-103.096,156.794-107.424c49.054-1.875,83.821,11.718,100.541,39.296
			c18.379,30.315,12.405,73.473-2.995,100.435c-4.155,7.277-9.066,13.044-15.454,18.151c-3.235,2.586-3.761,7.306-1.175,10.541
			c1.481,1.853,3.662,2.817,5.863,2.817c1.643,0,3.296-0.537,4.679-1.643c7.806-6.24,14.058-13.577,19.112-22.427
			C481.181,286.965,489.322,238.052,466.943,201.138z"/>
	</g>
</g>
<g>
	<g>
		<path d="M418.593,346.932c-2.028-3.613-6.601-4.895-10.212-2.864c-22.288,12.531-48.023,30.35-71.389,83.48
			c-13.918,31.648-37.773,55.96-63.812,65.036c-23.071,8.042-48.247,5-74.831-9.034l-1.895-0.997
			c-15.284-8.036-32.607-17.143-40.402-38.864c-9.564-26.656-2.292-67.684,21.615-121.945c0.714-1.619,1.417-3.22,2.109-4.806
			c1.657-3.796-0.077-8.217-3.873-9.874c-3.801-1.657-8.218,0.077-9.875,3.873c-0.685,1.569-1.38,3.154-2.087,4.757
			c-4.799,10.891-8.951,21.257-12.468,31.118c-86.471-12.824-104.981-58.507-105.072-95.022
			c-0.139-55.228,40.102-108.122,59.914-110.722c29.446-3.855,42.916-34.317,55.943-63.776
			c10.125-22.895,20.594-46.568,37.628-54.713C235.485,5.545,277.462,17.5,304.34,52.324c2.531,3.281,7.242,3.884,10.521,1.354
			c3.278-2.531,3.885-7.241,1.354-10.52C300.449,22.733,280.075,8.846,257.3,3c-21.508-5.521-44.197-3.374-63.887,6.047
			c-22.037,10.537-33.646,36.789-44.873,62.178c-11.874,26.85-23.089,52.209-44.175,54.971
			c-15.154,1.988-33.203,17.968-48.28,42.745C40.33,194.832,31.333,225.042,31.4,251.828
			c0.086,34.496,15.447,93.618,115.272,109.424c-11.189,36.403-12.72,65.262-4.739,87.504c9.766,27.217,31.599,38.694,47.541,47.075
			l1.87,0.985c19.163,10.117,37.836,15.186,55.825,15.186c10.565,0,20.896-1.75,30.945-5.252
			c43.098-15.021,65.133-56.168,72.606-73.163c21.507-48.904,43.908-64.58,65.01-76.443
			C419.341,355.114,420.623,350.541,418.593,346.932z"/>
	</g>
</g>
<g>
	<g>
		<path d="M423.812,220.802h-1.578c-4.143,0-7.5,3.358-7.5,7.5c0,4.142,3.357,7.5,7.5,7.5h1.578c4.143,0,7.5-3.358,7.5-7.5
			C431.312,224.159,427.954,220.802,423.812,220.802z"/>
	</g>
</g>
<g>
	<g>
		<path d="M369.498,205.405h-1.578c-4.143,0-7.5,3.358-7.5,7.5c0,4.142,3.357,7.5,7.5,7.5h1.578c4.143,0,7.5-3.358,7.5-7.5
			C376.998,208.763,373.641,205.405,369.498,205.405z"/>
	</g>
</g>
<g>
	<g>
		<path d="M413.637,125.711h-1.579c-4.143,0-7.5,3.358-7.5,7.5c0,4.142,3.357,7.5,7.5,7.5h1.579c4.143,0,7.5-3.358,7.5-7.5
			C421.137,129.069,417.78,125.711,413.637,125.711z"/>
	</g>
</g>
<g>
	<g>
		<path d="M66.432,362.261h-1.578c-4.143,0-7.5,3.358-7.5,7.5c0,4.142,3.357,7.5,7.5,7.5h1.578c4.143,0,7.5-3.358,7.5-7.5
			C73.932,365.619,70.575,362.261,66.432,362.261z"/>
	</g>
</g>
<g>
	<g>
		<path d="M391.178,102.302h-1.579c-4.143,0-7.5,3.358-7.5,7.5c0,4.142,3.357,7.5,7.5,7.5h1.579c4.143,0,7.5-3.358,7.5-7.5
			C398.678,105.66,395.321,102.302,391.178,102.302z"/>
	</g>
</g>
<g>
	<g>
		<path d="M235.901,37.36h-1.579c-4.143,0-7.5,3.358-7.5,7.5c0,4.142,3.357,7.5,7.5,7.5h1.579c4.143,0,7.5-3.358,7.5-7.5
			C243.401,40.718,240.044,37.36,235.901,37.36z"/>
	</g>
</g>
<g>
	<g>
		<path d="M327.37,322.373h-1.578c-4.143,0-7.5,3.358-7.5,7.5c0,4.142,3.357,7.5,7.5,7.5h1.578c4.143,0,7.5-3.358,7.5-7.5
			C334.87,325.731,331.513,322.373,327.37,322.373z"/>
	</g>
</g>
<g>
	<g>
		<path d="M267.699,238.342h-1.578c-4.143,0-7.5,3.358-7.5,7.5c0,4.142,3.357,7.5,7.5,7.5h1.578c4.143,0,7.5-3.358,7.5-7.5
			C275.199,241.7,271.841,238.342,267.699,238.342z"/>
	</g>
</g>
<g>
	<g>
		<path d="M129.782,162.606h-1.579c-4.143,0-7.5,3.358-7.5,7.5c0,4.142,3.357,7.5,7.5,7.5h1.579c4.143,0,7.5-3.358,7.5-7.5
			C137.282,165.964,133.925,162.606,129.782,162.606z"/>
	</g>
</g>
<g>
	<g>
		<path d="M236.69,130.908h-1.579c-4.143,0-7.5,3.358-7.5,7.5c0,4.142,3.357,7.5,7.5,7.5h1.579c4.143,0,7.5-3.358,7.5-7.5
			C244.19,134.266,240.833,130.908,236.69,130.908z"/>
	</g>
</g>
<g>
	<g>
		<path d="M100.451,275.127h-1.579c-4.143,0-7.5,3.358-7.5,7.5c0,4.142,3.357,7.5,7.5,7.5h1.579c4.143,0,7.5-3.358,7.5-7.5
			C107.951,278.485,104.593,275.127,100.451,275.127z"/>
	</g>
</g>
<g>
	<g>
		<path d="M257.957,55.945h-1.579c-4.143,0-7.5,3.358-7.5,7.5s3.357,7.5,7.5,7.5h1.579c4.143,0,7.5-3.358,7.5-7.5
			S262.1,55.945,257.957,55.945z"/>
	</g>
</g>
<g>
	<g>
		<path d="M350.17,306.438h-1.579c-4.143,0-7.5,3.358-7.5,7.5c0,4.142,3.357,7.5,7.5,7.5h1.579c4.143,0,7.5-3.358,7.5-7.5
			C357.67,309.796,354.313,306.438,350.17,306.438z"/>
	</g>
</g>
<g>
	<g>
		<path d="M280.218,427.789h-1.578c-4.143,0-7.5,3.358-7.5,7.5c0,4.142,3.357,7.5,7.5,7.5h1.578c4.143,0,7.5-3.358,7.5-7.5
			C287.718,431.147,284.361,427.789,280.218,427.789z"/>
	</g>
</g>
<g>
</g>
<g>
</g>
<g>
</g>
<g>
</g>
<g>
</g>
<g>
</g>
<g>
</g>
<g>
</g>
<g>
</g>
<g>
</g>
<g>
</g>
<g>
</g>
<g>
</g>
<g>
</g>
<g>
</g>
</svg>
