<svg xmlns="http://www.w3.org/2000/svg" viewBox="0 0 512 512"><g id="Outline"><path d="M459.425,313.379h-.254l-20.333.148-1.171-.007s1.062-.924,1.173-1.043a39.238,39.238,0,0,0,10.58-27,37.936,37.936,0,0,0-9.815-25.727,35.353,35.353,0,0,0-52.286-.39l-18.406,19.6a38.055,38.055,0,0,0-10.742-20.121,35.018,35.018,0,0,0-25.382-10.105,36.355,36.355,0,0,0-25.89,11.65l-53.013,56.439,11.662,10.955,53.011-56.437a20.48,20.48,0,0,1,14.555-6.611,18.963,18.963,0,0,1,13.855,5.534c12.37,12.37,2.647,28.471.193,32.623-2.579,4.364-1.68,7.84.867,10.164a8,8,0,0,0,11.221-.433l.023-.024,39.708-42.276a19.483,19.483,0,0,1,14.3-6.315h.132a19.554,19.554,0,0,1,14.39,6.55,21.98,21.98,0,0,1,5.621,14.928,23.3,23.3,0,0,1-6.237,16.039,16.778,16.778,0,0,0-3.108,18.236,15.907,15.907,0,0,0,14.719,9.775h.115l20.377-.15a19.714,19.714,0,0,1,14.45,6.2A22.6,22.6,0,0,1,480,351.232c.081,12.132-9.089,22.072-20.435,22.158l-20.391.14a15.929,15.929,0,0,0-14.692,10A16.755,16.755,0,0,0,427.8,401.66l.454.477a22.709,22.709,0,0,1,.194,30.967,19.525,19.525,0,0,1-14.177,6.321h-.133a19.492,19.492,0,0,1-14.1-6.112L359.8,391.628l-.032-.034a7.765,7.765,0,0,0-8.5-2.007,8.048,8.048,0,0,0-3.014,13.119h0a22.716,22.716,0,0,1,.2,30.974A19.538,19.538,0,0,1,334.271,440h-.129a19.5,19.5,0,0,1-14.107-6.113l-64.358-66.665q-.264-3.641-.746-7.219h29.755l37.657,37.657,11.314-11.314L307.314,360h41.354l37.677,37.658,11.31-11.316L371.3,360H424V344H371.326l26.332-26.345-11.316-11.31L348.705,344H307.314l26.343-26.343-11.314-11.314L284.686,344H251.661a119.891,119.891,0,0,0-25.382-46.965L291.314,232H403.3c19.389,0,35.831-15.047,36.666-34.418A35.823,35.823,0,0,0,433.92,176h25.4c19.658,0,36.2-15.479,36.665-35.133A36.04,36.04,0,0,0,460,104l-.583.04c-.027-.027-.058-.1-.03-.113l13.754-13.754A37.237,37.237,0,0,0,484.284,64.2a36.163,36.163,0,0,0-13.828-28.71A35.725,35.725,0,0,0,452.606,28a36.174,36.174,0,0,0-30.263,10.345L408.1,52.642c-.038,0-.114-.033-.1-.06,0-19.635-15.7-36.039-34.994-36.568a35.788,35.788,0,0,0-26.424,10.493A36.887,36.887,0,0,0,336,52.7V78.053a35.848,35.848,0,0,0-21.006-6.039C295.7,72.543,280,88.947,280,108.582v112.1l-65.035,65.035a120.368,120.368,0,0,0-28.106-18.393L253,203.476a35.346,35.346,0,0,0-.359-51.587,37.958,37.958,0,0,0-19.6-9.7l19.391-18.717a35.338,35.338,0,0,0-.369-51.587c-14.722-13.827-38.513-13.671-53,.314l-.476.454a.576.576,0,0,1-.508.19,1.063,1.063,0,0,1-.544-.187l-.139-20.341c-.153-20.081-17.172-36.32-38-36.32h-.267a38.537,38.537,0,0,0-26.659,10.754A35.64,35.64,0,0,0,121.38,52.828l.148,20.334a1.064,1.064,0,0,1-.535.187.64.64,0,0,1-.516-.19,39.241,39.241,0,0,0-27-10.579A37.938,37.938,0,0,0,67.752,72.4a35.353,35.353,0,0,0-.389,52.285l19.6,18.406a38.076,38.076,0,0,0-20.122,10.742,34.985,34.985,0,0,0-10.1,25.384A36.354,36.354,0,0,0,68.383,205.1l43.765,41.107L123.1,234.546,79.339,193.44a20.473,20.473,0,0,1-6.609-14.553,19.107,19.107,0,0,1,5.532-13.857,22.856,22.856,0,0,1,31.4-.619h0a8.029,8.029,0,0,0,12.818-2.587,7.88,7.88,0,0,0-1.863-9.075l-.029-.026-42.272-39.7A19.357,19.357,0,0,1,78.551,84.2,21.984,21.984,0,0,1,93.48,78.58a23.3,23.3,0,0,1,16.038,6.237,16.778,16.778,0,0,0,18.237,3.107,15.908,15.908,0,0,0,9.775-14.832l-.15-20.378a19.775,19.775,0,0,1,6.2-14.449A22.6,22.6,0,0,1,159.233,32h.16c12.058,0,21.911,9.14,22,20.436l.14,20.391a15.93,15.93,0,0,0,10,14.693A16.761,16.761,0,0,0,209.664,84.2l.472-.451a22.712,22.712,0,0,1,30.967-.195,19.342,19.342,0,0,1,.211,28.413L199.837,152a8.225,8.225,0,0,0-.61,11.368,8,8,0,0,0,11.479.378,22.717,22.717,0,0,1,30.975-.2,19.347,19.347,0,0,1,.2,28.415L170.356,261.02q-1.173-.351-2.356-.681V227.314l37.657-37.657-11.314-11.314L168,204.686V163.332l37.658-37.677-11.316-11.31L168,140.7V88H152v52.673l-26.345-26.331-11.31,11.316L152,163.295v41.391l-26.343-26.343-11.314,11.314L152,227.314v29.755A120.017,120.017,0,0,0,16,376a119.209,119.209,0,0,0,19.311,65.3L16.068,485.951a7.563,7.563,0,0,0,1.69,8.43h0A7.56,7.56,0,0,0,26,495.89l44.705-19.2a120.012,120.012,0,0,0,184.505-86.921L308.524,445a35.351,35.351,0,0,0,25.614,11h.239a35.387,35.387,0,0,0,25.734-11.359,37.973,37.973,0,0,0,9.7-19.6l18.717,19.392a35.339,35.339,0,0,0,51.587-.37c13.827-14.721,13.672-38.512-.311-53l-1.488-1.5,21.369-.172c20.165-.154,36.458-17.319,36.319-38.263a38.532,38.532,0,0,0-10.753-26.658A35.639,35.639,0,0,0,459.425,313.379ZM296,108.582c0-11.051,8.717-20.28,19.433-20.574A20,20,0,0,1,336,108a8,8,0,0,0,16,0V52a20,20,0,0,1,20.567-19.992C383.283,32.3,392,41.531,392,52.583a16.043,16.043,0,0,0,27.387,11.344l14.27-14.27a20.284,20.284,0,0,1,28.686,28.686l-14.27,14.27A16.043,16.043,0,0,0,459.417,120H460a20,20,0,0,1,0,40H404a8,8,0,0,0,0,16,20,20,0,0,1,0,40H307.314l24-24H384V176H347.314l32-32H432V128H395.314l34.343-34.343L418.343,82.343,384,116.686V80H368v52.686l-32,32V128H320v52.686l-24,24ZM227.919,424.605l-30.262-30.262-11.314,11.314,32.778,32.778a104.922,104.922,0,0,1-20.686,20.686l-24.778-24.778-11.314,11.314,22.262,22.262A103.359,103.359,0,0,1,136,480c-32.125,0-59.826-18.926-59.826-18.926l-.2-.127a8.185,8.185,0,0,0-7.561-.686h0L39.231,472.769l12.507-29.183a8,8,0,0,0-.813-7.759,104.086,104.086,0,0,1-15.754-85.342l7.172,7.172,11.314-11.314L41,333.69a104.656,104.656,0,0,1,49.952-51.42l35.387,35.387,11.314-11.314L107.334,276.02a103.916,103.916,0,0,1,32.3-3.958c53.862,1.848,97.766,45.2,100.255,99.037A103.482,103.482,0,0,1,227.919,424.605Z"/><rect x="138" y="317.515" width="16" height="16.971" transform="translate(-187.754 198.721) rotate(-45)"/><rect x="84" y="303.716" width="16" height="56.569" transform="translate(-207.813 162.294) rotate(-45)"/><rect x="64" y="353.373" width="16" height="45.255" transform="translate(-244.784 161.04) rotate(-45)"/><rect x="104" y="420.686" width="16" height="22.627" transform="translate(-272.666 205.726) rotate(-45)"/></g></svg>