<svg height="512pt" viewBox="-116 0 512 512" width="512pt" xmlns="http://www.w3.org/2000/svg"><path d="m7.699219 245.96875c-2.015625 5.144531.523437 10.945312 5.664062 12.957031 5.144531 2.011719 10.945313-.523437 12.960938-5.664062 16.640625-42.503907 60.960937-71.925781 110.273437-73.214844 61.398438-1.527344 123.402344 44.535156 123.402344 105.953125 0 48.300781-28.058594 71.542969-61.746094 106h-117.046875c-22.105469-22.582031-43.40625-41.898438-53.984375-67.605469-2.101562-5.105469-7.941406-7.539062-13.050781-5.441406-5.109375 2.101563-7.542969 7.945313-5.441406 13.054687 12.660156 30.769532 37.132812 52.222657 61.085937 76.949219 21.941406 22.652344 46.535156 50.625 60.632813 96.011719 1.300781 4.179688 5.171875 7.03125 9.550781 7.03125s8.25-2.851562 9.550781-7.03125c13.621094-43.816406 36.933594-72.042969 60.101563-96.019531 34.449218-35.65625 70.347656-64.15625 70.347656-122.949219 0-55.414062-40.640625-99.515625-92.136719-117.585938 13.441407-5.71875 27.960938-14.175781 40.417969-26.632812 33.4375-33.425781 38.070312-81.925781 38.25-83.972656.257812-2.945313-.796875-5.859375-2.890625-7.949219-2.09375-2.09375-5.003906-3.15625-7.953125-2.890625-1.894531.167969-43.625 4.15625-76.332031 31.296875-4.394531-41.613281-30.480469-73.242187-31.691407-74.6875-1.898437-2.265625-4.703124-3.578125-7.664062-3.578125s-5.765625 1.3125-7.667969 3.578125c-1.207031 1.445313-27.296875 33.074219-31.691406 74.6875-32.707031-27.140625-74.433594-31.128906-76.332031-31.296875-2.953125-.269531-5.859375.796875-7.949219 2.890625-2.09375 2.089844-3.152344 5.003906-2.890625 7.949219.179688 2.046875 4.8125 50.546875 38.246094 83.972656 12.253906 12.253906 26.539062 20.640625 39.820312 26.355469-40.21875 13.921875-70.542968 43.875-83.835937 77.832031zm132.273437 227.574219c-11.042968-24.789063-25.203125-44.441407-40.128906-61.554688h79.832031c-14.699219 16.960938-28.683593 36.570313-39.703125 61.554688zm104.308594-404.324219c-3.449219 15.03125-11.632812 39.917969-30.144531 58.421875-18.613281 18.613281-43.464844 26.765625-58.464844 30.183594 4.867187-21.390625 14.683594-42.960938 30.1875-58.464844 18.503906-18.507813 43.394531-26.695313 58.421875-30.140625zm-104.28125-41.839844c8.191406 13.070313 20 36.457032 20 62.621094 0 3.183594-.1875 6.464844-.542969 9.78125-11.980469 16.832031-18.542969 35-22.074219 48.566406-6.480468-11.128906-14.070312-27.484375-16.550781-46.144531-.550781-4.117187-.832031-8.222656-.832031-12.203125 0-26.167969 11.8125-49.554688 20-62.621094zm-104.28125 41.839844c15.035156 3.449219 39.921875 11.636719 58.429688 30.152344 2.527343 2.523437 4.960937 5.289062 7.269531 8.226562 3.070312 19.601563 10.664062 36.648438 17.566406 48.882813-15.109375-4.046875-36.613281-12.324219-53.125-28.84375-18.507813-18.5-26.691406-43.390625-30.140625-58.417969zm0 0"/><path d="m0 289c0 5.519531 4.480469 10 10 10s10-4.480469 10-10-4.480469-10-10-10-10 4.480469-10 10zm0 0"/></svg>