<svg id="Layer_5" enable-background="new 0 0 64 64" height="512" viewBox="0 0 64 64" width="512" xmlns="http://www.w3.org/2000/svg"><path d="m62.747 52.336c-.339-.382-8.405-9.336-17.747-9.336-.635 0-1.247.027-1.848.066 6.468-6.632 5.852-18.511 5.822-19.017l-.052-.888-.888-.052c-.452-.029-10.268-.537-17.042 4.194.002-.102.008-.2.008-.303 0-16.357-13.869-25.462-14.459-25.841l-.541-.347-.541.348c-.59.378-14.459 9.483-14.459 25.84 0 10.438 5.795 14.815 9.795 16.593-1.658 6.736-3.777 12.147-5.916 14.286-.567.566-.879 1.32-.879 2.121s.312 1.555.879 2.121 1.32.879 2.121.879 1.555-.312 2.121-.879c1.51-1.51 2.91-3.892 4.172-6.844 1.802-.852 3.735-2.003 5.738-3.365 3.722.94 7.283 1.803 12.051 2.286.404 3.06 2.665 8.802 13.918 8.802 9.342 0 17.408-8.954 17.747-9.336l.591-.664zm-15.793-27.249h.043c.004 2.865-.407 11.721-5.385 16.698-5.092 5.093-10.155 6.264-13.688 3.233 1.487-1.267 2.956-2.562 4.388-3.859l5.37 1.789.633-1.896-4.313-1.438c.869-.802 1.721-1.597 2.544-2.377l5.136 1.712.633-1.896-4.13-1.377c1.899-1.82 3.634-3.52 5.104-4.961l-1.4-1.428c-1.327 1.302-2.869 2.813-4.555 4.435l.654-4.58-1.98-.283-1.013 7.092c-.763.721-1.547 1.453-2.348 2.193l-.668-3.34-1.961.393.904 4.524c-1.419 1.285-2.872 2.567-4.34 3.817-.568-.821-.922-1.722-1.081-2.685 2.585-2.34 4.706-5.833 5.315-10.856 5.026-4.498 13.326-4.91 16.138-4.91zm-43.954 1.913c0-13.477 10.476-21.938 13-23.779 2.524 1.841 13 10.302 13 23.779 0 12.318-8.626 15.182-11.872 15.824.537-2.389 1.009-4.865 1.405-7.369 1.916-3.195 7.892-6.547 7.953-6.581l-.972-1.748c-.201.111-3.761 2.108-6.456 4.644.239-1.868.435-3.731.585-5.565 2.264-2.621 5.919-5.376 5.956-5.405l-1.199-1.6c-.126.094-2.406 1.811-4.545 3.884.094-1.745.145-3.45.145-5.084 0-1.307-.845-2.41-2.013-2.82-.116-3.776-.978-7.266-1.017-7.422l-1.94.484c.009.036.838 3.395.955 6.947-1.154.418-1.985 1.514-1.985 2.811 0 .181-.004.366-.005.549-2.128-1.924-4.346-3.323-4.465-3.396l-1.06 1.695c.034.021 3.225 2.033 5.464 4.44-.098 2.593-.307 5.261-.607 7.923-2.6-2.27-5.686-3.998-5.842-4.085l-.972 1.748c.042.023 3.984 2.232 6.513 4.795-.458 3.426-1.062 6.795-1.766 9.936-3.993-1.874-8.26-5.907-8.26-14.605zm4.707 33.707c-.383.383-1.031.383-1.414 0-.191-.191-.293-.436-.293-.707s.102-.516.293-.707c5.08-5.08 9.707-24.762 9.707-41.293 0-.552.448-1 1-1s1 .448 1 1c0 19.102-5.425 37.839-10.293 42.707zm8.924-15.764c2.051-.242 4.676-1.055 7.122-2.716.277.923.707 1.801 1.287 2.608-3.661 3.033-7.333 5.754-10.641 7.614.822-2.295 1.569-4.828 2.232-7.506zm9.741 1.381c.993.901 2.937 2.24 5.689 2.36-.572 1.059-.921 2.235-1.025 3.495-3.827-.402-6.857-1.055-9.852-1.791 1.713-1.254 3.453-2.626 5.188-4.064zm18.628 14.676c-6.794 0-11.101-2.451-11.865-6.624 1.97.142 4.144.223 6.606.223 1.577 0 3.281-.035 5.113-.105 2.086 1.139 3.207 3.85 3.218 3.878l1.856-.744c-.041-.102-.726-1.778-2.096-3.274 1.645-.091 3.387-.209 5.248-.358l-.16-1.994c-1.064.085-2.084.159-3.075.225 1.379-1.782 2.064-3.791 2.103-3.911l-1.896-.633c-.316.946-1.503 3.562-3.256 4.723-1.881.095-3.623.153-5.243.177 1.573-1.858 2.351-4.133 2.396-4.266l-1.896-.633c-.346 1.038-1.649 3.868-3.563 4.905-2.003-.024-3.808-.105-5.462-.23.118-1.504.663-2.813 1.615-3.909 1.747-.405 3.724-1.329 5.904-3.039 1.334-.271 2.828-.411 4.453-.411 7.039 0 13.594 5.973 15.616 8.001-2.02 2.028-8.563 7.999-15.616 7.999z"/></svg>