<svg height="448pt" viewBox="0 -80 448.00039 448" width="448pt" xmlns="http://www.w3.org/2000/svg"><path d="m318.238281 72 8-40h-299.636719l116.125 122.578125zm-241.644531-10.480469 11.605469-11.007812 11.800781 12.457031-11.609375 11zm22.980469 24.265625 11.625-11.015625 42.816406 45.230469-11.617187 10.976562zm0 0"/><path d="m102.902344 173.320312c-4.53125-3.4375-9.5-6.261718-14.773438-8.398437l3.199219 13.847656zm0 0"/><path d="m127.488281 161.753906-53.007812-55.953125 9.398437 40.742188c13.078125 3.40625 25.097656 10.035156 34.953125 19.28125zm0 0"/><path d="m8 16h328c4.417969 0 8-3.582031 8-8s-3.582031-8-8-8h-328c-4.417969 0-8 3.582031-8 8s3.582031 8 8 8zm0 0"/><path d="m443.3125 36c-2.90625-1.894531-6.59375-2.128906-9.710938-.609375l-39.914062 18.769531 9.511719 17.839844 38.992187-18.398438c3.523438-1.664062 5.78125-5.195312 5.808594-9.089843.03125-3.460938-1.746094-6.6875-4.6875-8.511719zm0 0"/><path d="m328.710938 84.746094-180.710938 85.054687-86.199219 40.550781c-3.535156 1.671876-5.792969 5.226563-5.800781 9.136719 0 3.457031 1.769531 6.671875 4.691406 8.523438 2.917969 1.847656 6.582032 2.078125 9.707032.605469l93.097656-43.816407 32.238281-15.199219 80.800781-38.015624h.050782l32-15.058594h.039062l80.070312-37.679688-9.496093-17.863281zm0 0"/><path d="m77.207031 243.105469c-13.019531 6.007812-28.449219.386719-34.554687-12.59375-6.105469-12.976563-.597656-28.445313 12.332031-34.648438l21.519531-10.128906-5.855468-25.375c-26.351563-2.75-51.671876 11.015625-63.6875 34.628906-12.015626 23.613281-8.238282 52.191407 9.496093 71.871094 17.738281 19.679687 45.765625 26.398437 70.496094 16.894531 24.734375-9.5 41.050781-33.257812 41.046875-59.753906 0-1.601562-.152344-3.121094-.265625-4.671875zm0 0"/><path d="m288 264c0 4.417969-3.582031 8-8 8h-8c-2.371094.003906-4.621094-1.046875-6.144531-2.863281l-68.886719-82.402344-17.152344 8.074219 70.777344 82.582031c8.265625 9.644531 21.664062 13.121094 33.578125 8.714844s19.824219-15.761719 19.828125-28.464844v-121.265625l-16 7.527344zm0 0"/></svg>